<svg width="153" height="158" viewBox="0 0 153 158" fill="none" xmlns="http://www.w3.org/2000/svg">
<path d="M136.049 75.2734C136.402 71.5862 136.672 66.8263 136.672 60.8522C136.674 41.7451 125.867 7.87573 76.1658 7.87573C26.4651 7.87573 15.6577 41.7451 15.6577 60.8522C15.6577 66.8263 15.9278 71.5862 16.2762 75.2734C11.5982 77.5131 9.17767 82.6299 9.17767 87.6928C9.17767 91.3329 10.3589 94.753 12.5003 97.3159C14.5412 99.7621 17.2855 101.257 20.5121 101.699C22.1086 128.017 53.9682 142.527 76.1658 142.527C98.359 142.527 130.223 128.017 131.815 101.701C135.046 101.259 137.79 99.7643 139.831 97.3204C141.977 94.753 143.154 91.3329 143.154 87.6928C143.154 82.6299 140.733 77.5131 136.049 75.2734ZM136.547 94.4501C134.919 96.398 132.561 97.4259 129.716 97.4259H127.552V99.6319C127.552 123.472 97.6221 138.111 76.1636 138.111C54.7028 138.111 24.7703 123.474 24.7703 99.6319V97.4259H22.6155C19.7774 97.4259 17.4127 96.398 15.7894 94.4501C14.3335 92.7131 13.5006 90.2467 13.5006 87.6928C13.5006 83.1236 16.0395 78.5118 21.7089 78.5118H23.4149L23.8123 76.8152C23.8816 76.5122 25.5518 69.2231 26.4651 53.8324C26.7353 49.2363 28.7494 47.607 34.1486 47.607C37.9379 47.607 42.8705 48.4822 48.5801 49.4943C56.3172 50.87 65.9568 52.5801 76.1658 52.5801C86.3792 52.5801 96.0188 50.87 103.758 49.4966C109.463 48.4822 114.396 47.6092 118.185 47.6092C123.584 47.6092 125.594 49.2385 125.869 53.8346C126.784 69.2208 128.446 76.5122 128.521 76.8129L128.914 78.514H130.625C136.294 78.514 138.833 83.1259 138.833 87.695C138.831 90.2467 137.998 92.7131 136.547 94.4501Z" fill="white" fill-opacity="0.17"/>
<g filter="url(#filter0_d_212_20785)">
<path d="M44.3583 33.5055H31.6845C28.3232 33.5055 25.0995 34.8408 22.7227 37.2176C20.346 39.5944 19.0107 42.818 19.0107 46.1793V58.8531M107.727 33.5055H120.401C123.762 33.5055 126.986 34.8408 129.363 37.2176C131.74 39.5944 133.075 42.818 133.075 46.1793V58.8531M101.39 65.19V77.8638M50.6952 65.19V77.8638M57.0321 115.885C57.0321 115.885 63.369 122.222 76.0428 122.222C88.7166 122.222 95.0535 115.885 95.0535 115.885M76.0428 77.8638V96.8745H69.7059M44.3583 147.57H31.6845C28.3232 147.57 25.0995 146.234 22.7227 143.858C20.346 141.481 19.0107 138.257 19.0107 134.896V122.222M107.727 147.57H120.401C123.762 147.57 126.986 146.234 129.363 143.858C131.74 141.481 133.075 138.257 133.075 134.896V122.222" stroke="url(#paint0_radial_212_20785)" stroke-width="3.37968" stroke-linecap="round" stroke-linejoin="round"/>
</g>
<defs>
<filter id="filter0_d_212_20785" x="10.2235" y="24.7183" width="131.638" height="131.638" filterUnits="userSpaceOnUse" color-interpolation-filters="sRGB">
<feFlood flood-opacity="0" result="BackgroundImageFix"/>
<feColorMatrix in="SourceAlpha" type="matrix" values="0 0 0 0 0 0 0 0 0 0 0 0 0 0 0 0 0 0 127 0" result="hardAlpha"/>
<feOffset/>
<feGaussianBlur stdDeviation="3.54866"/>
<feComposite in2="hardAlpha" operator="out"/>
<feColorMatrix type="matrix" values="0 0 0 0 1 0 0 0 0 1 0 0 0 0 1 0 0 0 1 0"/>
<feBlend mode="normal" in2="BackgroundImageFix" result="effect1_dropShadow_212_20785"/>
<feBlend mode="normal" in="SourceGraphic" in2="effect1_dropShadow_212_20785" result="shape"/>
</filter>
<radialGradient id="paint0_radial_212_20785" cx="0" cy="0" r="1" gradientUnits="userSpaceOnUse" gradientTransform="translate(124.164 138.658) rotate(-138.059) scale(165.327 432.093)">
<stop stop-color="white"/>
<stop offset="0.419973" stop-color="#D9F5FD"/>
<stop offset="0.818543" stop-color="#E5DAFF"/>
</radialGradient>
</defs>
</svg>
