<svg width="162" height="17" viewBox="0 0 162 17" fill="none" xmlns="http://www.w3.org/2000/svg">
<path d="M161.191 1.56778C160.868 1.23032 160.454 1.06293 159.949 1.06293C159.443 1.06293 159.022 1.23032 158.686 1.56778C158.363 1.90525 158.201 2.3264 158.201 2.83125C158.201 3.3226 158.363 3.74376 158.686 4.09472C159.022 4.43219 159.443 4.59958 159.949 4.59958C160.454 4.59958 160.868 4.43219 161.191 4.09472C161.514 3.74376 161.676 3.3226 161.676 2.83125C161.676 2.3264 161.514 1.90525 161.191 1.56778ZM158.328 6.01153V16.2448H161.549V6.01153H158.328ZM152.9 6.01153V8.51688L153.385 11.002L152.9 13.4871V16.2448H156.059V6.01153H152.9ZM153.301 7.31685C153.179 7.15217 153.047 6.99963 152.9 6.86194C152.623 6.59602 152.301 6.376 151.932 6.20051C151.384 5.93324 150.766 5.80095 150.079 5.80095C149.138 5.80095 148.296 6.03178 147.552 6.49478C146.822 6.95914 146.238 7.59087 145.804 8.38999C145.383 9.19046 145.172 10.103 145.172 11.1275C145.172 12.1534 145.383 13.0659 145.804 13.865C146.238 14.6655 146.822 15.2972 147.552 15.7603C148.296 16.2246 149.138 16.4554 150.079 16.4554C150.766 16.4554 151.391 16.3218 151.952 16.0559C152.316 15.8831 152.631 15.6698 152.9 15.4147C153.049 15.277 153.182 15.1245 153.301 14.9611C153.652 14.4833 153.848 13.9433 153.89 13.3386V8.91644C153.848 8.31305 153.652 7.77986 153.301 7.31685ZM152.395 12.8756C151.974 13.3251 151.419 13.5492 150.731 13.5492C150.296 13.5492 149.903 13.4439 149.552 13.2333C149.201 13.0227 148.927 12.7352 148.73 12.3707C148.535 12.0049 148.436 11.5919 148.436 11.1275C148.436 10.651 148.535 10.2299 148.73 9.86405C148.941 9.49958 149.215 9.21881 149.552 9.02172C149.903 8.81115 150.303 8.70586 150.752 8.70586C151.202 8.70586 151.595 8.81115 151.932 9.02172C152.283 9.21881 152.549 9.49958 152.731 9.86405C152.928 10.2299 153.027 10.651 153.027 11.1275C153.027 11.8294 152.816 12.4126 152.395 12.8756ZM139.185 6.03178C138.82 5.8779 138.392 5.80095 137.9 5.80095C136.777 5.80095 135.9 6.13032 135.268 6.7904C134.636 7.45049 134.187 8.37649 133.921 9.56977L135.268 10.6227C135.268 9.96258 135.422 9.47123 135.731 9.14861C136.054 8.81115 136.483 8.64376 137.016 8.64376C137.282 8.64376 137.521 8.68561 137.732 8.7693C137.942 8.85434 138.118 8.97313 138.258 9.12702L140.175 6.70536C139.894 6.39759 139.563 6.17216 139.185 6.03178ZM132.046 6.01153V16.2448H135.268V6.01153H132.046ZM129.705 8.38999C129.214 7.57603 128.547 6.93753 127.705 6.47453C126.863 6.01153 125.908 5.77936 124.84 5.77936C123.774 5.77936 122.82 6.01828 121.977 6.49478C121.135 6.95914 120.468 7.59087 119.977 8.38999C119.486 9.19046 119.24 10.0962 119.24 11.1073C119.24 12.1183 119.486 13.0308 119.977 13.8448C120.468 14.6588 121.135 15.304 121.977 15.7818C122.833 16.2448 123.788 16.477 124.84 16.477C125.908 16.477 126.863 16.2448 127.705 15.7818C128.547 15.304 129.214 14.6588 129.705 13.8448C130.197 13.0308 130.442 12.1183 130.442 11.1073C130.442 10.0962 130.197 9.19046 129.705 8.38999ZM126.863 12.391C126.68 12.7568 126.413 13.0443 126.062 13.2549C125.711 13.452 125.303 13.5492 124.84 13.5492C124.391 13.5492 123.991 13.452 123.64 13.2549C123.289 13.0443 123.015 12.7568 122.82 12.391C122.623 12.013 122.524 11.5919 122.524 11.1275C122.524 10.651 122.623 10.2299 122.82 9.86405C123.015 9.49958 123.289 9.21881 123.64 9.02172C123.991 8.81115 124.391 8.70586 124.84 8.70586C125.303 8.70586 125.704 8.81115 126.04 9.02172C126.391 9.21881 126.665 9.49958 126.863 9.86405C127.058 10.215 127.157 10.6294 127.157 11.1073C127.157 11.5838 127.058 12.013 126.863 12.391ZM110.845 6.01153V8.74906H118.7V6.01153H110.845ZM113.161 1.77836V16.2448H116.384V1.77836H113.161ZM108.396 12.7069C108.157 12.9741 107.87 13.1847 107.532 13.3386C107.21 13.479 106.837 13.5492 106.416 13.5492C105.968 13.5492 105.56 13.4439 105.196 13.2333C104.83 13.0227 104.543 12.7352 104.332 12.3707C104.135 12.0049 104.038 11.5838 104.038 11.1073C104.038 10.6294 104.135 10.215 104.332 9.86405C104.543 9.49958 104.823 9.21881 105.174 9.02172C105.539 8.81115 105.953 8.70586 106.416 8.70586C106.824 8.70586 107.182 8.7693 107.491 8.89619C107.813 9.02172 108.094 9.21881 108.333 9.48608L110.397 7.42214C109.877 6.8741 109.281 6.46778 108.607 6.20051C107.947 5.91974 107.217 5.77936 106.416 5.77936C105.35 5.77936 104.389 6.01153 103.531 6.47453C102.676 6.93753 101.994 7.57603 101.489 8.38999C100.998 9.19046 100.752 10.103 100.752 11.1275C100.752 12.1386 100.998 13.0511 101.489 13.865C101.98 14.6804 102.654 15.3188 103.511 15.7818C104.367 16.2448 105.321 16.477 106.374 16.477C107.203 16.477 107.954 16.3366 108.627 16.0559C109.302 15.7603 109.906 15.3323 110.439 14.7708L108.396 12.7069ZM95.9992 6.01153V8.51688L96.4825 11.002L95.9992 13.4871V16.2448H99.1579V6.01153H95.9992ZM96.3988 7.31685C96.2787 7.15217 96.145 7.00098 95.9992 6.86329C95.7225 6.59602 95.3986 6.376 95.03 6.20051C94.482 5.93324 93.8651 5.80095 93.1767 5.80095C92.2358 5.80095 91.3935 6.03178 90.6497 6.49478C89.9195 6.95914 89.3377 7.59087 88.9017 8.38999C88.4805 9.19046 88.2699 10.103 88.2699 11.1275C88.2699 12.1534 88.4805 13.0659 88.9017 13.865C89.3377 14.6655 89.9195 15.2972 90.6497 15.7603C91.3935 16.2246 92.2358 16.4554 93.1767 16.4554C93.8651 16.4554 94.4901 16.3218 95.0516 16.0559C95.4148 15.8831 95.7306 15.6698 95.9992 15.4133C96.1464 15.2756 96.28 15.1245 96.3988 14.9611C96.7498 14.4833 96.9469 13.9433 96.9887 13.3386V8.91644C96.9469 8.31305 96.7498 7.77986 96.3988 7.31685ZM95.493 12.8756C95.0719 13.3251 94.5171 13.5492 93.83 13.5492C93.394 13.5492 93.0012 13.4439 92.6502 13.2333C92.2993 13.0227 92.0252 12.7352 91.8295 12.3707C91.6324 12.0049 91.5339 11.5919 91.5339 11.1275C91.5339 10.651 91.6324 10.2299 91.8295 9.86405C92.0401 9.49958 92.3141 9.21881 92.6502 9.02172C93.0012 8.81115 93.4021 8.70586 93.8503 8.70586C94.2998 8.70586 94.6926 8.81115 95.03 9.02172C95.381 9.21881 95.6483 9.49958 95.8305 9.86405C96.0262 10.2299 96.1248 10.651 96.1248 11.1275C96.1248 11.8294 95.9142 12.4126 95.493 12.8756ZM79.2353 6.01153V8.74906H87.6584V6.01153H79.2353ZM87.8474 1.08318C87.3291 0.844256 86.7176 0.725468 86.0157 0.725468C85.0896 0.725468 84.2892 0.922543 83.6156 1.31536C82.942 1.69467 82.4156 2.22111 82.0363 2.8947C81.6704 3.55478 81.4882 4.29855 81.4882 5.12602V16.2448H84.7103V5.02073C84.7103 4.58607 84.8372 4.24186 85.0896 3.98944C85.3421 3.73701 85.6863 3.61013 86.1209 3.61013C86.3599 3.61013 86.5637 3.65197 86.7324 3.73701C86.9147 3.8072 87.0753 3.91249 87.2157 4.05288L89.2378 2.03078C88.845 1.62447 88.382 1.30861 87.8474 1.08318ZM74.693 0.95764V8.51688L75.2397 11.002L74.7551 13.4871V16.2448H77.9138V0.95764H74.693ZM75.3247 7.31685C75.1412 7.07657 74.9306 6.86329 74.693 6.67701C74.4595 6.49208 74.1989 6.3328 73.9128 6.20051C73.3512 5.93324 72.7195 5.80095 72.0176 5.80095C71.0497 5.80095 70.1858 6.03178 69.4285 6.49478C68.6834 6.95914 68.0949 7.59087 67.6589 8.38999C67.2377 9.19046 67.0271 10.103 67.0271 11.1275C67.0271 12.1534 67.2377 13.0659 67.6589 13.865C68.0949 14.6655 68.6834 15.2972 69.4285 15.7603C70.1858 16.2246 71.0497 16.4554 72.0176 16.4554C72.7195 16.4554 73.3593 16.315 73.9344 16.0343C74.2367 15.879 74.5108 15.6995 74.7551 15.493C74.9751 15.308 75.1722 15.1029 75.345 14.8761C75.7108 14.3847 75.9133 13.838 75.9565 13.2333V8.91644C75.9133 8.31305 75.7027 7.77986 75.3247 7.31685ZM74.5877 12.391C74.3906 12.7568 74.1234 13.0443 73.7872 13.2549C73.4498 13.452 73.0502 13.5492 72.5872 13.5492C72.1512 13.5492 71.7584 13.4439 71.4074 13.2333C71.0565 13.0227 70.7824 12.7352 70.5867 12.3707C70.3896 12.0049 70.2911 11.5919 70.2911 11.1275C70.2911 10.6645 70.3896 10.2501 70.5867 9.88564C70.7973 9.52118 71.07 9.2323 71.4074 9.02172C71.7584 8.81115 72.158 8.70586 72.6075 8.70586C73.057 8.70586 73.4498 8.81115 73.7872 9.02172C74.1382 9.2323 74.4041 9.52118 74.5877 9.88564C74.7834 10.2366 74.882 10.651 74.882 11.1275C74.882 11.6054 74.7834 12.0265 74.5877 12.391ZM66.0998 6.03178C65.734 5.8779 65.306 5.80095 64.8147 5.80095C63.6916 5.80095 62.8142 6.13032 62.1825 6.7904C61.5507 7.45049 61.1012 8.37649 60.8353 9.56977L62.1825 10.6227C62.1825 9.96258 62.3363 9.47123 62.6455 9.14861C62.9681 8.81115 63.3973 8.64376 63.9305 8.64376C64.1965 8.64376 64.4354 8.68561 64.646 8.7693C64.8565 8.85434 65.032 8.97313 65.1724 9.12702L67.0892 6.70536C66.8084 6.39759 66.4777 6.17216 66.0998 6.03178ZM58.9603 6.01153V16.2448H62.1825V6.01153H58.9603ZM56.3335 1.56778C56.0109 1.23032 55.5965 1.06293 55.0916 1.06293C54.5854 1.06293 54.1643 1.23032 53.8282 1.56778C53.5055 1.90525 53.3436 2.3264 53.3436 2.83125C53.3436 3.3226 53.5055 3.74376 53.8282 4.09472C54.1643 4.43219 54.5854 4.59958 55.0916 4.59958C55.5965 4.59958 56.0109 4.43219 56.3335 4.09472C56.6561 3.74376 56.8181 3.3226 56.8181 2.83125C56.8181 2.3264 56.6561 1.90525 56.3335 1.56778ZM53.4704 6.01153V16.2448H56.6912V6.01153H53.4704ZM41.4189 0.95764V16.2448H44.641V0.95764H41.4189ZM50.8949 7.67456C50.5723 7.08467 50.1093 6.62842 49.5059 6.3058C48.9012 5.96833 48.1992 5.80095 47.4001 5.80095C46.6131 5.80095 45.9179 5.96833 45.3146 6.3058C45.0675 6.43809 44.8435 6.59332 44.641 6.77421C44.3481 7.03068 44.1037 7.33845 43.904 7.69617C43.5665 8.29955 43.3991 9.00148 43.3991 9.80195L44.641 10.4121C44.641 10.0611 44.7179 9.75201 44.8732 9.48608C45.027 9.20531 45.2376 8.99473 45.5049 8.85434C45.7708 8.69911 46.0799 8.62217 46.4309 8.62217C46.9358 8.62217 47.3502 8.7909 47.6728 9.12702C48.0102 9.45099 48.179 9.87889 48.179 10.4121V16.2448H51.4011V9.69666C51.4011 8.92454 51.2324 8.24961 50.8949 7.67456ZM32.1453 6.01153V8.74906H40.0002V6.01153H32.1453ZM34.4617 1.77836V16.2448H37.6838V1.77836H34.4617Z" fill="white"/>
<path d="M141.645 16.5C141.097 16.5 140.64 16.3105 140.276 15.9314C139.91 15.5524 139.728 15.0961 139.728 14.5627C139.728 14.0011 139.91 13.5378 140.276 13.1728C140.64 12.7938 141.097 12.6043 141.645 12.6043C142.206 12.6043 142.662 12.7938 143.013 13.1728C143.378 13.5378 143.56 14.0011 143.56 14.5627C143.56 15.0961 143.378 15.5524 143.013 15.9314C142.662 16.3105 142.206 16.5 141.645 16.5Z" fill="white"/>
<path d="M0.0701904 8.53509C0.0701904 4.1362 3.57339 0.570175 7.89478 0.570175C12.2162 0.570175 15.7193 4.1362 15.7193 8.53509C15.7193 12.934 12.2162 16.5 7.89478 16.5C3.57339 16.5 0.0701904 12.934 0.0701904 8.53509Z" fill="#276AA4"/>
<path d="M21.4035 5.3978C20.942 5.16991 20.4225 5.04315 19.8733 5.04315C17.9558 5.04315 16.4013 6.59662 16.4013 8.51149C16.4013 9.8465 17.1556 11.0049 18.2621 11.5834V15.3133C17.864 15.5601 17.4417 15.7718 17.0004 15.9458C16.4134 16.1777 15.7927 16.3422 15.1477 16.4285C14.7968 16.4757 14.4392 16.5 14.0749 16.5C13.7119 16.5 13.3543 16.4757 13.0035 16.4285C12.2856 16.3328 11.5974 16.14 10.9537 15.8662C8.10376 14.6526 6.10529 11.8274 6.10529 8.53441C6.10529 5.24273 8.10376 2.41762 10.9537 1.20397C11.9118 0.795372 12.967 0.570175 14.0749 0.570175C15.1085 0.570175 16.095 0.767059 17.0004 1.12441C18.9786 1.90384 20.5682 3.45057 21.4035 5.3978Z" fill="#9FBDD7"/>
<path d="M27.7193 8.54867C27.7193 8.84047 27.7045 9.12821 27.6735 9.4119C27.3094 12.8675 24.7839 15.6612 21.5033 16.3596V11.6044C22.609 11.0249 23.3641 9.8631 23.3641 8.5257C23.3641 7.15723 22.5726 5.97248 21.4238 5.40644C20.9627 5.17814 20.4435 5.05115 19.8947 5.05115C17.9787 5.05115 16.4254 6.60741 16.4254 8.5257C16.4254 9.8631 17.1791 11.0235 18.2848 11.6031V16.3596C17.8506 16.2664 17.4286 16.1381 17.0241 15.9733C15.8052 15.4843 14.7359 14.6913 13.9067 13.6848C12.7606 12.2975 12.0702 10.5048 12.0702 8.54867C12.0702 6.59255 12.7606 4.80124 13.9067 3.41385C14.7359 2.40741 15.8052 1.61443 17.0241 1.1254C17.9126 0.766059 18.8808 0.570175 19.8947 0.570175C23.9304 0.570175 27.2514 3.68538 27.6735 7.68543C27.7045 7.96913 27.7193 8.25687 27.7193 8.54867Z" fill="white"/>
</svg>
