<svg width="44" height="44" viewBox="0 0 44 44" fill="none" xmlns="http://www.w3.org/2000/svg">
<path d="M31.625 8.25H12.375C10.1062 8.25 8.25 10.1062 8.25 12.375V31.625C8.25 33.8937 10.1062 35.75 12.375 35.75H31.625C33.8937 35.75 35.75 33.8937 35.75 31.625V12.375C35.75 10.1062 33.8937 8.25 31.625 8.25ZM21.3125 20.625H22.605C24.5025 20.625 26.0425 22.165 26.0425 24.0625C26.0425 25.74 24.9013 27.115 23.375 27.4725V28.875C23.375 29.6313 22.7563 30.25 22 30.25C21.2437 30.25 20.625 29.6313 20.625 28.875V27.555H19.25C18.4937 27.555 17.875 26.95 17.875 26.18C17.875 25.4238 18.4937 24.805 19.25 24.805H22.605C22.99 24.805 23.2925 24.5025 23.2925 24.1175C23.2925 23.6775 22.99 23.375 22.605 23.375H21.3125C19.415 23.375 17.875 21.835 17.875 19.9375C17.875 18.2738 19.0575 16.885 20.625 16.5688V15.125C20.625 14.3687 21.2437 13.75 22 13.75C22.7563 13.75 23.375 14.3687 23.375 15.125V16.5H24.6675C25.4237 16.5 26.0425 17.1187 26.0425 17.875C26.0425 18.6313 25.4237 19.25 24.6675 19.25H21.3125C20.9275 19.25 20.625 19.5525 20.625 19.9375C20.625 20.3225 20.9275 20.625 21.3125 20.625ZM23.375 4.125V5.5H20.625V4.125C20.625 3.36875 21.2437 2.75 22 2.75C22.7563 2.75 23.375 3.36875 23.375 4.125ZM17.875 4.125V5.5H15.125V4.125C15.125 3.36875 15.7437 2.75 16.5 2.75C17.2563 2.75 17.875 3.36875 17.875 4.125ZM28.875 4.125V5.5H26.125V4.125C26.125 3.36875 26.7437 2.75 27.5 2.75C28.2563 2.75 28.875 3.36875 28.875 4.125ZM20.625 38.5H23.375V39.875C23.375 40.6312 22.7563 41.25 22 41.25C21.2437 41.25 20.625 40.6312 20.625 39.875V38.5ZM15.125 38.5H17.875V39.875C17.875 40.6312 17.2563 41.25 16.5 41.25C15.7437 41.25 15.125 40.6312 15.125 39.875V38.5ZM26.125 38.5H28.875V39.875C28.875 40.6312 28.2563 41.25 27.5 41.25C26.7437 41.25 26.125 40.6312 26.125 39.875V38.5ZM41.25 22C41.25 22.7563 40.6312 23.375 39.875 23.375H38.5V20.625H39.875C40.6312 20.625 41.25 21.2437 41.25 22ZM41.25 16.5C41.25 17.2563 40.6312 17.875 39.875 17.875H38.5V15.125H39.875C40.6312 15.125 41.25 15.7437 41.25 16.5ZM41.25 27.5C41.25 28.2563 40.6312 28.875 39.875 28.875H38.5V26.125H39.875C40.6312 26.125 41.25 26.7437 41.25 27.5ZM4.125 20.625H5.5V23.375H4.125C3.36875 23.375 2.75 22.7563 2.75 22C2.75 21.2437 3.36875 20.625 4.125 20.625ZM4.125 15.125H5.5V17.875H4.125C3.36875 17.875 2.75 17.2563 2.75 16.5C2.75 15.7437 3.36875 15.125 4.125 15.125ZM4.125 26.125H5.5V28.875H4.125C3.36875 28.875 2.75 28.2563 2.75 27.5C2.75 26.7437 3.36875 26.125 4.125 26.125Z" fill="black"/>
<path d="M31.625 8.25H12.375C10.1062 8.25 8.25 10.1062 8.25 12.375V31.625C8.25 33.8937 10.1062 35.75 12.375 35.75H31.625C33.8937 35.75 35.75 33.8937 35.75 31.625V12.375C35.75 10.1062 33.8937 8.25 31.625 8.25ZM21.3125 20.625H22.605C24.5025 20.625 26.0425 22.165 26.0425 24.0625C26.0425 25.74 24.9013 27.115 23.375 27.4725V28.875C23.375 29.6313 22.7563 30.25 22 30.25C21.2437 30.25 20.625 29.6313 20.625 28.875V27.555H19.25C18.4937 27.555 17.875 26.95 17.875 26.18C17.875 25.4238 18.4937 24.805 19.25 24.805H22.605C22.99 24.805 23.2925 24.5025 23.2925 24.1175C23.2925 23.6775 22.99 23.375 22.605 23.375H21.3125C19.415 23.375 17.875 21.835 17.875 19.9375C17.875 18.2738 19.0575 16.885 20.625 16.5688V15.125C20.625 14.3687 21.2437 13.75 22 13.75C22.7563 13.75 23.375 14.3687 23.375 15.125V16.5H24.6675C25.4237 16.5 26.0425 17.1187 26.0425 17.875C26.0425 18.6313 25.4237 19.25 24.6675 19.25H21.3125C20.9275 19.25 20.625 19.5525 20.625 19.9375C20.625 20.3225 20.9275 20.625 21.3125 20.625ZM23.375 4.125V5.5H20.625V4.125C20.625 3.36875 21.2437 2.75 22 2.75C22.7563 2.75 23.375 3.36875 23.375 4.125ZM17.875 4.125V5.5H15.125V4.125C15.125 3.36875 15.7437 2.75 16.5 2.75C17.2563 2.75 17.875 3.36875 17.875 4.125ZM28.875 4.125V5.5H26.125V4.125C26.125 3.36875 26.7437 2.75 27.5 2.75C28.2563 2.75 28.875 3.36875 28.875 4.125ZM20.625 38.5H23.375V39.875C23.375 40.6312 22.7563 41.25 22 41.25C21.2437 41.25 20.625 40.6312 20.625 39.875V38.5ZM15.125 38.5H17.875V39.875C17.875 40.6312 17.2563 41.25 16.5 41.25C15.7437 41.25 15.125 40.6312 15.125 39.875V38.5ZM26.125 38.5H28.875V39.875C28.875 40.6312 28.2563 41.25 27.5 41.25C26.7437 41.25 26.125 40.6312 26.125 39.875V38.5ZM41.25 22C41.25 22.7563 40.6312 23.375 39.875 23.375H38.5V20.625H39.875C40.6312 20.625 41.25 21.2437 41.25 22ZM41.25 16.5C41.25 17.2563 40.6312 17.875 39.875 17.875H38.5V15.125H39.875C40.6312 15.125 41.25 15.7437 41.25 16.5ZM41.25 27.5C41.25 28.2563 40.6312 28.875 39.875 28.875H38.5V26.125H39.875C40.6312 26.125 41.25 26.7437 41.25 27.5ZM4.125 20.625H5.5V23.375H4.125C3.36875 23.375 2.75 22.7563 2.75 22C2.75 21.2437 3.36875 20.625 4.125 20.625ZM4.125 15.125H5.5V17.875H4.125C3.36875 17.875 2.75 17.2563 2.75 16.5C2.75 15.7437 3.36875 15.125 4.125 15.125ZM4.125 26.125H5.5V28.875H4.125C3.36875 28.875 2.75 28.2563 2.75 27.5C2.75 26.7437 3.36875 26.125 4.125 26.125Z" fill="url(#paint0_linear_76_123)"/>
<defs>
<linearGradient id="paint0_linear_76_123" x1="6" y1="7.5" x2="40" y2="39.5" gradientUnits="userSpaceOnUse">
<stop stop-color="#2388FF"/>
<stop offset="0.53344" stop-color="#CFC2EE" stop-opacity="0.7"/>
<stop offset="1" stop-color="#4A3AFF" stop-opacity="0"/>
</linearGradient>
</defs>
</svg>
