<svg width="44" height="44" viewBox="0 0 44 44" fill="none" xmlns="http://www.w3.org/2000/svg">
<g clip-path="url(#clip0_125_902)">
<path d="M40.5625 24.9041H7.64844V5.75781C7.64844 5.04581 7.07138 4.46875 6.35938 4.46875C5.64737 4.46875 5.07031 5.04581 5.07031 5.75781V24.9041H3.4375C1.54218 24.9041 0 26.4459 0 28.3416V36.0753C0 37.9709 1.54218 39.5128 3.4375 39.5128H40.5625C42.4578 39.5128 44 37.9709 44 36.0753V28.3416C44 26.4459 42.4578 24.9041 40.5625 24.9041ZM36.0938 32.2084C36.0938 32.5478 35.9561 32.8795 35.7164 33.1202C35.4757 33.3599 35.1441 33.4975 34.8047 33.4975C34.4653 33.4975 34.1336 33.3599 33.8929 33.1202C33.6533 32.8795 33.5156 32.5478 33.5156 32.2084C33.5156 31.869 33.6533 31.537 33.8929 31.2967C34.1336 31.057 34.4653 30.9194 34.8047 30.9194C35.1441 30.9194 35.4757 31.057 35.7164 31.2967C35.9561 31.5364 36.0938 31.869 36.0938 32.2084ZM32.0547 32.2084C32.0547 32.5478 31.9171 32.8795 31.6774 33.1202C31.4367 33.3599 31.105 33.4975 30.7656 33.4975C30.4262 33.4975 30.0946 33.3599 29.8539 33.1202C29.6142 32.8795 29.4766 32.5478 29.4766 32.2084C29.4766 31.869 29.6142 31.537 29.8539 31.2967C30.0946 31.057 30.4262 30.9194 30.7656 30.9194C31.105 30.9194 31.4367 31.057 31.6774 31.2967C31.9171 31.5364 32.0547 31.869 32.0547 32.2084ZM28.0156 32.2084C28.0156 32.5478 27.878 32.8795 27.6383 33.1202C27.3976 33.3599 27.0659 33.4975 26.7266 33.4975C26.3872 33.4975 26.0555 33.3599 25.8148 33.1202C25.5751 32.8795 25.4375 32.5478 25.4375 32.2084C25.4375 31.869 25.5751 31.537 25.8148 31.2967C26.0555 31.057 26.3872 30.9194 26.7266 30.9194C27.0659 30.9194 27.3976 31.057 27.6383 31.2967C27.878 31.5364 28.0156 31.869 28.0156 32.2084Z" fill="black"/>
<path d="M40.5625 24.9041H7.64844V5.75781C7.64844 5.04581 7.07138 4.46875 6.35938 4.46875C5.64737 4.46875 5.07031 5.04581 5.07031 5.75781V24.9041H3.4375C1.54218 24.9041 0 26.4459 0 28.3416V36.0753C0 37.9709 1.54218 39.5128 3.4375 39.5128H40.5625C42.4578 39.5128 44 37.9709 44 36.0753V28.3416C44 26.4459 42.4578 24.9041 40.5625 24.9041ZM36.0938 32.2084C36.0938 32.5478 35.9561 32.8795 35.7164 33.1202C35.4757 33.3599 35.1441 33.4975 34.8047 33.4975C34.4653 33.4975 34.1336 33.3599 33.8929 33.1202C33.6533 32.8795 33.5156 32.5478 33.5156 32.2084C33.5156 31.869 33.6533 31.537 33.8929 31.2967C34.1336 31.057 34.4653 30.9194 34.8047 30.9194C35.1441 30.9194 35.4757 31.057 35.7164 31.2967C35.9561 31.5364 36.0938 31.869 36.0938 32.2084ZM32.0547 32.2084C32.0547 32.5478 31.9171 32.8795 31.6774 33.1202C31.4367 33.3599 31.105 33.4975 30.7656 33.4975C30.4262 33.4975 30.0946 33.3599 29.8539 33.1202C29.6142 32.8795 29.4766 32.5478 29.4766 32.2084C29.4766 31.869 29.6142 31.537 29.8539 31.2967C30.0946 31.057 30.4262 30.9194 30.7656 30.9194C31.105 30.9194 31.4367 31.057 31.6774 31.2967C31.9171 31.5364 32.0547 31.869 32.0547 32.2084ZM28.0156 32.2084C28.0156 32.5478 27.878 32.8795 27.6383 33.1202C27.3976 33.3599 27.0659 33.4975 26.7266 33.4975C26.3872 33.4975 26.0555 33.3599 25.8148 33.1202C25.5751 32.8795 25.4375 32.5478 25.4375 32.2084C25.4375 31.869 25.5751 31.537 25.8148 31.2967C26.0555 31.057 26.3872 30.9194 26.7266 30.9194C27.0659 30.9194 27.3976 31.057 27.6383 31.2967C27.878 31.5364 28.0156 31.869 28.0156 32.2084Z" fill="url(#paint0_linear_125_902)"/>
</g>
<defs>
<linearGradient id="paint0_linear_125_902" x1="3.71429" y1="8.79236" x2="38.0468" y2="47.8667" gradientUnits="userSpaceOnUse">
<stop stop-color="#2388FF"/>
<stop offset="0.472636" stop-color="#CFC2EE" stop-opacity="0.7"/>
<stop offset="1" stop-color="#4A3AFF" stop-opacity="0"/>
</linearGradient>
<clipPath id="clip0_125_902">
<rect width="44" height="44" fill="white"/>
</clipPath>
</defs>
</svg>
