<svg width="115" height="18" viewBox="0 0 115 18" fill="none" xmlns="http://www.w3.org/2000/svg">
<path d="M17.325 7.73405L13.8212 11.1495L14.6486 15.9735C14.6846 16.1845 14.598 16.3977 14.4247 16.5237C14.3268 16.5951 14.2104 16.6311 14.094 16.6311C14.0045 16.6311 13.9145 16.6097 13.8324 16.5664L9.50003 14.2889L5.16821 16.5659C4.97921 16.666 4.74915 16.6497 4.5759 16.5231C4.40265 16.3971 4.31603 16.1839 4.35203 15.973L5.17946 11.149L1.67509 7.73405C1.52209 7.58442 1.4664 7.36055 1.53278 7.15749C1.59915 6.95442 1.77521 6.80536 1.98728 6.77442L6.82984 6.0713L8.99546 1.68267C9.18503 1.29848 9.81503 1.29848 10.0046 1.68267L12.1702 6.0713L17.0128 6.77442C17.2248 6.80536 17.4009 6.95386 17.4673 7.15749C17.5337 7.36111 17.478 7.58386 17.325 7.73405Z" fill="url(#paint0_linear_126_246)"/>
<path d="M41.325 7.73405L37.8212 11.1495L38.6486 15.9735C38.6846 16.1845 38.598 16.3977 38.4247 16.5237C38.3268 16.5951 38.2104 16.6311 38.094 16.6311C38.0045 16.6311 37.9145 16.6097 37.8324 16.5664L33.5 14.2889L29.1682 16.5659C28.9792 16.666 28.7492 16.6497 28.5759 16.5231C28.4027 16.3971 28.316 16.1839 28.352 15.973L29.1795 11.149L25.6751 7.73405C25.5221 7.58442 25.4664 7.36055 25.5328 7.15749C25.5992 6.95442 25.7752 6.80536 25.9873 6.77442L30.8298 6.0713L32.9955 1.68267C33.185 1.29848 33.815 1.29848 34.0046 1.68267L36.1702 6.0713L41.0128 6.77442C41.2248 6.80536 41.4009 6.95386 41.4673 7.15749C41.5337 7.36111 41.478 7.58386 41.325 7.73405Z" fill="black"/>
<path d="M41.325 7.73405L37.8212 11.1495L38.6486 15.9735C38.6846 16.1845 38.598 16.3977 38.4247 16.5237C38.3268 16.5951 38.2104 16.6311 38.094 16.6311C38.0045 16.6311 37.9145 16.6097 37.8324 16.5664L33.5 14.2889L29.1682 16.5659C28.9792 16.666 28.7492 16.6497 28.5759 16.5231C28.4027 16.3971 28.316 16.1839 28.352 15.973L29.1795 11.149L25.6751 7.73405C25.5221 7.58442 25.4664 7.36055 25.5328 7.15749C25.5992 6.95442 25.7752 6.80536 25.9873 6.77442L30.8298 6.0713L32.9955 1.68267C33.185 1.29848 33.815 1.29848 34.0046 1.68267L36.1702 6.0713L41.0128 6.77442C41.2248 6.80536 41.4009 6.95386 41.4673 7.15749C41.5337 7.36111 41.478 7.58386 41.325 7.73405Z" fill="url(#paint1_linear_126_246)"/>
<path d="M65.3249 7.73405L61.8211 11.1495L62.6485 15.9735C62.6845 16.1845 62.5979 16.3977 62.4247 16.5237C62.3268 16.5951 62.2103 16.6311 62.0939 16.6311C62.0045 16.6311 61.9145 16.6097 61.8323 16.5664L57.5 14.2889L53.1682 16.5659C52.9792 16.666 52.7491 16.6497 52.5758 16.5231C52.4026 16.3971 52.316 16.1839 52.352 15.973L53.1794 11.149L49.675 7.73405C49.522 7.58442 49.4663 7.36055 49.5327 7.15749C49.5991 6.95442 49.7752 6.80536 49.9872 6.77442L54.8298 6.0713L56.9954 1.68267C57.185 1.29848 57.815 1.29848 58.0045 1.68267L60.1702 6.0713L65.0127 6.77442C65.2248 6.80536 65.4008 6.95386 65.4672 7.15749C65.5336 7.36111 65.4779 7.58386 65.3249 7.73405Z" fill="black"/>
<path d="M65.3249 7.73405L61.8211 11.1495L62.6485 15.9735C62.6845 16.1845 62.5979 16.3977 62.4247 16.5237C62.3268 16.5951 62.2103 16.6311 62.0939 16.6311C62.0045 16.6311 61.9145 16.6097 61.8323 16.5664L57.5 14.2889L53.1682 16.5659C52.9792 16.666 52.7491 16.6497 52.5758 16.5231C52.4026 16.3971 52.316 16.1839 52.352 15.973L53.1794 11.149L49.675 7.73405C49.522 7.58442 49.4663 7.36055 49.5327 7.15749C49.5991 6.95442 49.7752 6.80536 49.9872 6.77442L54.8298 6.0713L56.9954 1.68267C57.185 1.29848 57.815 1.29848 58.0045 1.68267L60.1702 6.0713L65.0127 6.77442C65.2248 6.80536 65.4008 6.95386 65.4672 7.15749C65.5336 7.36111 65.4779 7.58386 65.3249 7.73405Z" fill="url(#paint2_linear_126_246)"/>
<path d="M89.3249 7.73405L85.8211 11.1495L86.6485 15.9735C86.6845 16.1845 86.5979 16.3977 86.4247 16.5237C86.3268 16.5951 86.2103 16.6311 86.0939 16.6311C86.0045 16.6311 85.9145 16.6097 85.8323 16.5664L81.5 14.2889L77.1682 16.5659C76.9792 16.666 76.7491 16.6497 76.5758 16.5231C76.4026 16.3971 76.316 16.1839 76.352 15.973L77.1794 11.149L73.675 7.73405C73.522 7.58442 73.4663 7.36055 73.5327 7.15749C73.5991 6.95442 73.7752 6.80536 73.9872 6.77442L78.8298 6.0713L80.9954 1.68267C81.185 1.29848 81.815 1.29848 82.0045 1.68267L84.1702 6.0713L89.0127 6.77442C89.2248 6.80536 89.4008 6.95386 89.4672 7.15749C89.5336 7.36111 89.4779 7.58386 89.3249 7.73405Z" fill="black"/>
<path d="M89.3249 7.73405L85.8211 11.1495L86.6485 15.9735C86.6845 16.1845 86.5979 16.3977 86.4247 16.5237C86.3268 16.5951 86.2103 16.6311 86.0939 16.6311C86.0045 16.6311 85.9145 16.6097 85.8323 16.5664L81.5 14.2889L77.1682 16.5659C76.9792 16.666 76.7491 16.6497 76.5758 16.5231C76.4026 16.3971 76.316 16.1839 76.352 15.973L77.1794 11.149L73.675 7.73405C73.522 7.58442 73.4663 7.36055 73.5327 7.15749C73.5991 6.95442 73.7752 6.80536 73.9872 6.77442L78.8298 6.0713L80.9954 1.68267C81.185 1.29848 81.815 1.29848 82.0045 1.68267L84.1702 6.0713L89.0127 6.77442C89.2248 6.80536 89.4008 6.95386 89.4672 7.15749C89.5336 7.36111 89.4779 7.58386 89.3249 7.73405Z" fill="url(#paint3_linear_126_246)"/>
<path d="M113.325 7.73405L109.821 11.1495L110.649 15.9735C110.685 16.1845 110.598 16.3977 110.425 16.5237C110.327 16.5951 110.21 16.6311 110.094 16.6311C110.004 16.6311 109.914 16.6097 109.832 16.5664L105.5 14.2889L101.168 16.5659C100.979 16.666 100.749 16.6497 100.576 16.5231C100.403 16.3971 100.316 16.1839 100.352 15.973L101.179 11.149L97.675 7.73405C97.522 7.58442 97.4663 7.36055 97.5327 7.15749C97.5991 6.95442 97.7752 6.80536 97.9872 6.77442L102.83 6.0713L104.995 1.68267C105.185 1.29848 105.815 1.29848 106.005 1.68267L108.17 6.0713L113.013 6.77442C113.225 6.80536 113.401 6.95386 113.467 7.15749C113.534 7.36111 113.478 7.58386 113.325 7.73405Z" fill="black"/>
<path d="M113.325 7.73405L109.821 11.1495L110.649 15.9735C110.685 16.1845 110.598 16.3977 110.425 16.5237C110.327 16.5951 110.21 16.6311 110.094 16.6311C110.004 16.6311 109.914 16.6097 109.832 16.5664L105.5 14.2889L101.168 16.5659C100.979 16.666 100.749 16.6497 100.576 16.5231C100.403 16.3971 100.316 16.1839 100.352 15.973L101.179 11.149L97.675 7.73405C97.522 7.58442 97.4663 7.36055 97.5327 7.15749C97.5991 6.95442 97.7752 6.80536 97.9872 6.77442L102.83 6.0713L104.995 1.68267C105.185 1.29848 105.815 1.29848 106.005 1.68267L108.17 6.0713L113.013 6.77442C113.225 6.80536 113.401 6.95386 113.467 7.15749C113.534 7.36111 113.478 7.58386 113.325 7.73405Z" fill="url(#paint4_linear_126_246)"/>
<defs>
<linearGradient id="paint0_linear_126_246" x1="9.50003" y1="1.39453" x2="9.50003" y2="16.6311" gradientUnits="userSpaceOnUse">
<stop stop-color="#9CB2FF"/>
<stop offset="1" stop-color="#E59CFF"/>
</linearGradient>
<linearGradient id="paint1_linear_126_246" x1="33.5" y1="1.39453" x2="33.5" y2="16.6311" gradientUnits="userSpaceOnUse">
<stop stop-color="#9CB2FF"/>
<stop offset="1" stop-color="#E59CFF"/>
</linearGradient>
<linearGradient id="paint2_linear_126_246" x1="57.5" y1="1.39453" x2="57.5" y2="16.6311" gradientUnits="userSpaceOnUse">
<stop stop-color="#9CB2FF"/>
<stop offset="1" stop-color="#E59CFF"/>
</linearGradient>
<linearGradient id="paint3_linear_126_246" x1="81.5" y1="1.39453" x2="81.5" y2="16.6311" gradientUnits="userSpaceOnUse">
<stop stop-color="#9CB2FF"/>
<stop offset="1" stop-color="#E59CFF"/>
</linearGradient>
<linearGradient id="paint4_linear_126_246" x1="105.5" y1="1.39453" x2="105.5" y2="16.6311" gradientUnits="userSpaceOnUse">
<stop stop-color="#9CB2FF"/>
<stop offset="1" stop-color="#E59CFF"/>
</linearGradient>
</defs>
</svg>
