<svg width="311" height="41" viewBox="0 0 311 41" fill="none" xmlns="http://www.w3.org/2000/svg">
<path d="M16.32 25.88H4.998L2.72 32H1.054L9.826 8.676H11.526L20.264 32H18.598L16.32 25.88ZM15.844 24.588L10.676 10.682L5.474 24.588H15.844Z" fill="white"/>
<path d="M39.7555 22.5523V32.1734H38V8.17918H44.1379C46.7518 8.17918 48.7485 8.75202 50.131 9.89444C51.5136 11.0369 52.2048 12.7098 52.2048 14.9068C52.2048 17.1038 51.4332 18.972 49.8899 20.4041C48.3466 21.8362 46.1859 22.5555 43.408 22.5555H39.7555V22.5523ZM39.7555 9.70241V21.0323H43.3726C45.6651 21.0323 47.4109 20.518 48.6038 19.483C49.7966 18.4512 50.3947 16.9931 50.3947 15.1086C50.3947 11.5056 48.2019 9.70241 43.8163 9.70241H39.7555Z" fill="white"/>
<path d="M70.7727 32.1734L67.3839 25.1463C66.6862 23.6947 65.9885 22.7215 65.2908 22.2268C64.5931 21.7321 63.7185 21.4815 62.6671 21.4815H59.5098V32.1734H57.7543V8.17921H64.8117C67.0591 8.17921 68.8211 8.75205 70.1072 9.89447C71.39 11.0369 72.0299 12.5471 72.0299 14.4219C72.0299 16.1502 71.5026 17.5953 70.4512 18.7572C69.3998 19.9192 67.9272 20.6645 66.0367 20.9998V21.0681C67.0398 21.4489 68.0237 22.6011 68.9818 24.5312L72.7597 32.1799H70.7727V32.1734ZM59.513 9.70244V19.9778H63.8921C65.8309 19.9778 67.371 19.4993 68.5124 18.5392C69.6538 17.579 70.2229 16.2641 70.2229 14.5911C70.2229 13.0614 69.7085 11.8669 68.6796 11.0011C67.6507 10.1353 66.1782 9.7057 64.2651 9.7057H59.513V9.70244Z" fill="white"/>
<path d="M77.9201 32.1734V8.17921H79.6756V32.1734H77.9201Z" fill="white"/>
<path d="M124.612 32.1734L121.702 24.7102H110.67L107.761 32.1734H105.828L115.422 8.17921H117.091L126.579 32.1734H124.612ZM116.808 12.0947C116.68 11.7595 116.57 11.4307 116.49 11.1085C116.406 10.8286 116.319 10.5519 116.223 10.272H116.152C115.95 11.0076 115.757 11.6065 115.567 12.0622L111.294 23.1902H121.101L116.808 12.0947Z" fill="white"/>
<path d="M93.5718 21.0714L81.3797 38.8262H85.5852L95.6392 24.1765L100.771 31.1059H104.336L97.3851 21.5076L108.899 4.83337H104.478L95.4238 18.3309L89.8647 10.6073H85.8714L93.5718 21.0714Z" fill="white"/>
<path d="M109.754 3.31987L109.326 4.25724H104.905L105.478 3.31987H109.754Z" fill="white"/>
<path d="M110.895 1.73156L110.468 2.66894H106.047L106.616 1.73156H110.895Z" fill="white"/>
<path d="M108.114 0L107.545 0.937375H111.323V0H108.114Z" fill="white"/>
<path d="M81.3797 39.1875L81.6659 40.0532H84.8007L85.2991 39.1875H81.3797Z" fill="white"/>
<path d="M144.415 20.1C144.415 17.7427 144.902 15.646 145.877 13.81C146.874 11.9513 148.234 10.5007 149.957 9.458C151.702 8.41533 153.652 7.894 155.805 7.894C158.525 7.894 160.814 8.52866 162.673 9.798C164.532 11.0673 165.892 12.8467 166.753 15.136H164.985C164.305 13.3227 163.172 11.8947 161.585 10.852C160.021 9.78667 158.094 9.254 155.805 9.254C153.969 9.254 152.303 9.696 150.807 10.58C149.311 11.4413 148.132 12.6993 147.271 14.354C146.41 15.986 145.979 17.9013 145.979 20.1C145.979 22.276 146.41 24.18 147.271 25.812C148.132 27.4213 149.311 28.668 150.807 29.552C152.303 30.436 153.969 30.878 155.805 30.878C158.094 30.878 160.021 30.3567 161.585 29.314C163.172 28.2487 164.305 26.8093 164.985 24.996H166.753C165.892 27.2853 164.532 29.0647 162.673 30.334C160.814 31.6033 158.525 32.238 155.805 32.238C153.652 32.238 151.702 31.728 149.957 30.708C148.234 29.6653 146.874 28.226 145.877 26.39C144.902 24.5313 144.415 22.4347 144.415 20.1ZM179.657 32.272C177.934 32.272 176.382 31.8867 174.999 31.116C173.616 30.3453 172.528 29.246 171.735 27.818C170.964 26.3673 170.579 24.6787 170.579 22.752C170.579 20.848 170.976 19.182 171.769 17.754C172.562 16.3033 173.65 15.204 175.033 14.456C176.438 13.6853 178.002 13.3 179.725 13.3C181.448 13.3 183 13.6853 184.383 14.456C185.766 15.204 186.842 16.292 187.613 17.72C188.406 19.148 188.803 20.8253 188.803 22.752C188.803 24.6787 188.406 26.3673 187.613 27.818C186.82 29.246 185.72 30.3453 184.315 31.116C182.932 31.8867 181.38 32.272 179.657 32.272ZM179.657 30.912C180.994 30.912 182.241 30.6173 183.397 30.028C184.576 29.416 185.516 28.498 186.219 27.274C186.922 26.05 187.273 24.5427 187.273 22.752C187.273 20.984 186.922 19.488 186.219 18.264C185.516 17.04 184.587 16.1333 183.431 15.544C182.275 14.932 181.028 14.626 179.691 14.626C178.354 14.626 177.107 14.932 175.951 15.544C174.818 16.1333 173.9 17.04 173.197 18.264C172.494 19.488 172.143 20.984 172.143 22.752C172.143 24.5427 172.483 26.05 173.163 27.274C173.866 28.498 174.784 29.416 175.917 30.028C177.073 30.6173 178.32 30.912 179.657 30.912ZM215.273 13.164C217.381 13.164 219.104 13.844 220.441 15.204C221.779 16.5413 222.447 18.536 222.447 21.188V32H220.951V21.29C220.951 19.0913 220.419 17.414 219.353 16.258C218.311 15.0793 216.871 14.49 215.035 14.49C213.131 14.49 211.601 15.1473 210.445 16.462C209.289 17.7767 208.711 19.6807 208.711 22.174V32H207.215V21.29C207.215 19.0913 206.683 17.414 205.617 16.258C204.575 15.0793 203.135 14.49 201.299 14.49C199.395 14.49 197.865 15.1473 196.709 16.462C195.553 17.7767 194.975 19.6807 194.975 22.174V32H193.445V13.538H194.975V17.55C195.497 16.0993 196.335 15.0113 197.491 14.286C198.67 13.538 200.019 13.164 201.537 13.164C203.215 13.164 204.654 13.606 205.855 14.49C207.079 15.3513 207.918 16.632 208.371 18.332C208.802 16.632 209.641 15.3513 210.887 14.49C212.134 13.606 213.596 13.164 215.273 13.164ZM229.407 18.4C229.928 16.904 230.869 15.68 232.229 14.728C233.612 13.776 235.278 13.3 237.227 13.3C238.95 13.3 240.48 13.6853 241.817 14.456C243.177 15.2267 244.231 16.326 244.979 17.754C245.75 19.182 246.135 20.848 246.135 22.752C246.135 24.656 245.75 26.3333 244.979 27.784C244.231 29.212 243.177 30.3227 241.817 31.116C240.48 31.8867 238.95 32.272 237.227 32.272C235.3 32.272 233.646 31.796 232.263 30.844C230.903 29.8693 229.951 28.6453 229.407 27.172V40.704H227.877V13.538H229.407V18.4ZM244.571 22.752C244.571 21.0747 244.254 19.624 243.619 18.4C242.984 17.176 242.089 16.2467 240.933 15.612C239.8 14.9547 238.485 14.626 236.989 14.626C235.561 14.626 234.269 14.966 233.113 15.646C231.957 16.3033 231.05 17.2553 230.393 18.502C229.736 19.726 229.407 21.1427 229.407 22.752C229.407 24.384 229.736 25.8233 230.393 27.07C231.05 28.294 231.957 29.246 233.113 29.926C234.269 30.5833 235.561 30.912 236.989 30.912C238.485 30.912 239.8 30.5833 240.933 29.926C242.089 29.2687 242.984 28.328 243.619 27.104C244.254 25.88 244.571 24.4293 244.571 22.752ZM249.802 22.752C249.802 20.848 250.176 19.182 250.924 17.754C251.694 16.326 252.748 15.2267 254.086 14.456C255.446 13.6853 256.987 13.3 258.71 13.3C260.659 13.3 262.314 13.776 263.674 14.728C265.034 15.68 265.986 16.8927 266.53 18.366V13.538H268.06V32H266.53V27.138C265.986 28.634 265.022 29.8693 263.64 30.844C262.28 31.796 260.636 32.272 258.71 32.272C256.987 32.272 255.446 31.8867 254.086 31.116C252.748 30.3227 251.694 29.212 250.924 27.784C250.176 26.3333 249.802 24.656 249.802 22.752ZM266.53 22.752C266.53 21.1427 266.19 19.726 265.51 18.502C264.852 17.2553 263.946 16.3033 262.79 15.646C261.634 14.966 260.342 14.626 258.914 14.626C257.418 14.626 256.103 14.9547 254.97 15.612C253.836 16.2467 252.952 17.176 252.318 18.4C251.683 19.624 251.366 21.0747 251.366 22.752C251.366 24.4293 251.683 25.88 252.318 27.104C252.952 28.328 253.836 29.2687 254.97 29.926C256.126 30.5833 257.44 30.912 258.914 30.912C260.342 30.912 261.634 30.5833 262.79 29.926C263.968 29.246 264.886 28.294 265.544 27.07C266.201 25.8233 266.53 24.384 266.53 22.752ZM281.961 13.164C284.159 13.164 285.95 13.844 287.333 15.204C288.715 16.5413 289.407 18.536 289.407 21.188V32H287.911V21.29C287.911 19.0913 287.355 17.414 286.245 16.258C285.134 15.0793 283.627 14.49 281.723 14.49C279.728 14.49 278.13 15.1247 276.929 16.394C275.75 17.6633 275.161 19.5447 275.161 22.038V32H273.631V13.538H275.161V17.448C275.682 16.0653 276.543 15.0113 277.745 14.286C278.969 13.538 280.374 13.164 281.961 13.164ZM309.23 13.538L298.486 40.67H296.922L300.356 32L292.604 13.538H294.27L301.206 30.3L307.666 13.538H309.23Z" fill="white"/>
</svg>
