<svg width="300" height="300" viewBox="0 0 300 300" fill="none" xmlns="http://www.w3.org/2000/svg">
<rect width="300" height="300" rx="150" fill="white"/>
<g clip-path="url(#clip0_53_153)">
<path d="M64 149.83C64 122.31 85.8925 100 112.898 100C139.904 100 161.796 122.31 161.796 149.83C161.796 177.35 139.904 199.66 112.898 199.66C85.8925 199.66 64 177.35 64 149.83Z" fill="#007BE5"/>
<path d="M197.318 130.203C194.434 128.777 191.187 127.984 187.755 127.984C175.772 127.984 166.058 137.703 166.058 149.682C166.058 158.034 170.772 165.282 177.686 168.901V192.236C175.198 193.78 172.559 195.104 169.802 196.193C166.133 197.643 162.254 198.673 158.223 199.213C156.03 199.508 153.796 199.66 151.519 199.66C149.251 199.66 147.016 199.508 144.824 199.213C140.338 198.614 136.037 197.408 132.014 195.695C114.204 188.102 101.715 170.427 101.715 149.826C101.715 129.232 114.204 111.558 132.014 103.965C138.002 101.409 144.596 100 151.519 100C157.979 100 164.144 101.232 169.802 103.467C182.164 108.344 192.098 118.02 197.318 130.203Z" fill="#54AFFF"/>
<path d="M236.787 149.915C236.787 151.74 236.695 153.541 236.501 155.315C234.226 176.934 218.443 194.412 197.942 198.782V169.032C204.852 165.407 209.57 158.138 209.57 149.771C209.57 141.21 204.624 133.798 197.445 130.257C194.564 128.828 191.319 128.034 187.889 128.034C175.916 128.034 166.209 137.77 166.209 149.771C166.209 158.138 170.919 165.398 177.829 169.024V198.782C175.115 198.198 172.478 197.396 169.95 196.365C162.333 193.306 155.651 188.344 150.469 182.048C143.306 173.369 138.992 162.153 138.992 149.915C138.992 137.677 143.306 126.47 150.469 117.791C155.651 111.494 162.333 106.533 169.95 103.474C175.503 101.225 181.553 100 187.889 100C213.109 100 233.863 119.489 236.501 144.514C236.695 146.289 236.787 148.089 236.787 149.915Z" fill="#002647"/>
</g>
<defs>
<clipPath id="clip0_53_153">
<rect width="173" height="100" fill="white" transform="translate(64 100)"/>
</clipPath>
</defs>
</svg>
