<svg width="565" height="565" viewBox="0 0 565 565" fill="none" xmlns="http://www.w3.org/2000/svg">
<g filter="url(#filter0_f_974_182)">
<circle cx="282.301" cy="282.301" r="180" fill="url(#paint0_linear_974_182)"/>
</g>
<circle cx="282.301" cy="282.301" r="164" fill="white"/>
<path d="M157.736 282.355C157.736 242.561 189.428 210.301 228.521 210.301C267.615 210.301 299.305 242.561 299.305 282.355C299.305 322.15 267.615 354.409 228.521 354.409C189.428 354.409 157.736 322.15 157.736 282.355Z" fill="#007BE5"/>
<path d="M350.729 253.974C346.554 251.912 341.854 250.765 336.886 250.765C319.539 250.765 305.476 264.819 305.476 282.142C305.476 294.219 312.3 304.698 322.31 309.932V343.674C318.709 345.907 314.888 347.822 310.896 349.396C305.586 351.494 299.971 352.982 294.136 353.763C290.961 354.19 287.726 354.409 284.431 354.409C281.147 354.409 277.912 354.19 274.738 353.763C268.244 352.897 262.018 351.153 256.195 348.676C230.413 337.697 212.334 312.139 212.334 282.349C212.334 252.571 230.413 227.014 256.195 216.034C264.862 212.338 274.408 210.301 284.431 210.301C293.781 210.301 302.706 212.082 310.896 215.315C328.792 222.366 343.172 236.358 350.729 253.974Z" fill="#54AFFF"/>
<path d="M407.864 282.478C407.864 285.118 407.73 287.721 407.45 290.287C404.156 321.548 381.309 346.821 351.631 353.139V310.121C361.634 304.879 368.465 294.369 368.465 282.27C368.465 269.89 361.304 259.173 350.912 254.052C346.741 251.987 342.044 250.838 337.079 250.838C319.746 250.838 305.694 264.916 305.694 282.27C305.694 294.369 312.512 304.866 322.515 310.11V353.139C318.587 352.296 314.769 351.135 311.11 349.645C300.083 345.221 290.41 338.047 282.909 328.942C272.541 316.392 266.295 300.174 266.295 282.478C266.295 264.782 272.541 248.577 282.909 236.026C290.41 226.921 300.083 219.748 311.11 215.324C319.148 212.073 327.907 210.301 337.079 210.301C373.588 210.301 403.631 238.482 407.45 274.669C407.73 277.235 407.864 279.838 407.864 282.478Z" fill="#002647"/>
<defs>
<filter id="filter0_f_974_182" x="0.000778198" y="0.000778198" width="564.6" height="564.6" filterUnits="userSpaceOnUse" color-interpolation-filters="sRGB">
<feFlood flood-opacity="0" result="BackgroundImageFix"/>
<feBlend mode="normal" in="SourceGraphic" in2="BackgroundImageFix" result="shape"/>
<feGaussianBlur stdDeviation="51.15" result="effect1_foregroundBlur_974_182"/>
</filter>
<linearGradient id="paint0_linear_974_182" x1="282.301" y1="102.301" x2="282.301" y2="462.301" gradientUnits="userSpaceOnUse">
<stop stop-color="#CDE8FF"/>
<stop offset="1" stop-color="#77C0FF"/>
</linearGradient>
</defs>
</svg>
