<svg width="407" height="235" viewBox="0 0 407 235" fill="none" xmlns="http://www.w3.org/2000/svg">
<path d="M0 117.1C0 52.4278 51.5042 0 115.037 0C178.571 0 230.074 52.4278 230.074 117.1C230.074 181.773 178.571 234.201 115.037 234.201C51.5042 234.201 0 181.773 0 117.1Z" fill="#007BE5"/>
<path d="M313.643 70.9759C306.858 67.6255 299.221 65.7618 291.146 65.7618C262.955 65.7618 240.101 88.601 240.101 116.753C240.101 136.381 251.191 153.412 267.458 161.917V216.754C261.605 220.382 255.397 223.495 248.909 226.053C240.279 229.462 231.153 231.881 221.67 233.15C216.511 233.844 211.254 234.201 205.898 234.201C200.561 234.201 195.304 233.844 190.146 233.15C179.592 231.743 169.474 228.908 160.01 224.883C118.11 207.04 88.7285 165.504 88.7285 117.09C88.7285 68.6961 118.11 27.1612 160.01 9.31808C174.096 3.31085 189.61 0 205.898 0C221.094 0 235.598 2.8946 248.909 8.14838C277.992 19.6076 301.363 42.3477 313.643 70.9759Z" fill="#54AFFF"/>
<path d="M406.499 117.3C406.499 121.59 406.282 125.821 405.826 129.991C400.473 180.796 363.343 221.869 315.112 232.137V162.226C331.368 153.706 342.469 136.625 342.469 116.962C342.469 96.8431 330.832 79.4249 313.943 71.1029C307.164 67.7465 299.53 65.8794 291.462 65.8794C263.293 65.8794 240.456 88.7596 240.456 116.962C240.456 136.625 251.537 153.685 267.793 162.206V232.137C261.409 230.766 255.205 228.88 249.258 226.457C231.338 219.268 215.617 207.609 203.426 192.812C186.576 172.416 176.426 146.059 176.426 117.3C176.426 88.5412 186.576 62.2053 203.426 41.8078C215.617 27.0111 231.338 15.3527 249.258 8.16294C262.321 2.87989 276.555 0 291.462 0C350.795 0 399.62 45.7999 405.826 104.609C406.282 108.78 406.499 113.01 406.499 117.3Z" fill="#002647"/>
</svg>
