<svg width="302" height="78" viewBox="0 0 302 78" fill="none" xmlns="http://www.w3.org/2000/svg">
<path fill-rule="evenodd" clip-rule="evenodd" d="M124.861 9.61786C125.698 9.61786 126.385 9.89527 126.919 10.4545C127.454 11.0138 127.722 11.7118 127.722 12.5484C127.722 13.3627 127.454 14.0607 126.919 14.6423C126.385 15.2016 125.698 15.479 124.861 15.479C124.022 15.479 123.324 15.2016 122.767 14.6423C122.233 14.0607 121.964 13.3627 121.964 12.5484C121.964 11.7118 122.233 11.0138 122.767 10.4545C123.324 9.89527 124.022 9.61786 124.861 9.61786Z" fill="white"/>
<path fill-rule="evenodd" clip-rule="evenodd" d="M90.6719 17.819V10.8035H96.0118V17.819H99.8507V22.3558H96.0118V34.7783H90.6719V22.3558H86.833V17.819H90.6719Z" fill="white"/>
<path fill-rule="evenodd" clip-rule="evenodd" d="M102.202 34.7783V9.44337H107.542V19.083C107.877 18.7832 108.249 18.5259 108.658 18.3067C109.658 17.7474 110.81 17.47 112.114 17.47C113.439 17.47 114.602 17.7474 115.604 18.3067C116.604 18.8414 117.371 19.5975 117.906 20.5751C118.465 21.5281 118.745 22.6467 118.745 23.9263V34.7783H113.405V25.1119C113.405 24.2283 113.125 23.5191 112.566 22.9822C112.032 22.4252 111.345 22.1455 110.508 22.1455C109.926 22.1455 109.414 22.2731 108.973 22.5303C108.53 22.763 108.181 23.112 107.927 23.5773C107.669 24.018 107.542 24.5302 107.542 25.1119V34.7783H102.202Z" fill="white"/>
<path fill-rule="evenodd" clip-rule="evenodd" d="M122.174 17.819V34.7783H127.512V17.819H122.174Z" fill="white"/>
<path fill-rule="evenodd" clip-rule="evenodd" d="M140.975 17.47C141.789 17.47 142.499 17.5976 143.105 17.8526C143.731 18.0852 144.279 18.4588 144.744 18.9689L141.568 22.9822C141.335 22.7272 141.044 22.5303 140.695 22.3894C140.346 22.2507 139.95 22.1813 139.51 22.1813C138.626 22.1813 137.915 22.4587 137.38 23.018C136.868 23.5527 136.613 24.367 136.613 25.461V34.7783H131.273V17.819H136.613V19.1098C137.66 18.0159 139.114 17.47 140.975 17.47Z" fill="white"/>
<path fill-rule="evenodd" clip-rule="evenodd" d="M157.346 9.44337V18.9219C156.959 18.6154 156.527 18.3514 156.053 18.1322C155.122 17.6893 154.075 17.47 152.912 17.47C151.308 17.47 149.876 17.8526 148.621 18.6199C147.386 19.3895 146.411 20.4364 145.689 21.7608C144.991 23.0874 144.642 24.5997 144.642 26.2976C144.642 27.9977 144.991 29.51 145.689 30.8343C146.411 32.161 147.386 33.2079 148.621 33.9753C149.876 34.7448 151.308 35.1273 152.912 35.1273C154.075 35.1273 155.136 34.8946 156.089 34.4294C156.59 34.1721 157.044 33.8746 157.449 33.5324V34.7783H162.684V9.44337H157.346ZM155.845 29.8232C156.402 29.4742 156.845 28.9977 157.171 28.3915C157.496 27.7874 157.659 27.0896 157.659 26.2976C157.659 25.5079 157.496 24.8211 157.171 24.2395C156.867 23.6355 156.427 23.1567 155.845 22.8077C155.286 22.4587 154.635 22.2842 153.89 22.2842C153.145 22.2842 152.483 22.4587 151.901 22.8077C151.342 23.1567 150.89 23.6355 150.541 24.2395C150.214 24.8435 150.051 25.5302 150.051 26.2976C150.051 27.0672 150.214 27.7516 150.541 28.3579C150.865 28.9619 151.319 29.4384 151.901 29.7874C152.483 30.1365 153.134 30.311 153.856 30.311C154.623 30.311 155.286 30.1499 155.845 29.8232Z" fill="white"/>
<path fill-rule="evenodd" clip-rule="evenodd" d="M164.874 22.3558V17.819H168.607V16.3515C168.607 14.9801 168.909 13.7475 169.516 12.6536C170.144 11.5373 171.017 10.6648 172.133 10.0362C173.249 9.3852 174.576 9.05859 176.111 9.05859C177.274 9.05859 178.287 9.25546 179.146 9.65142C180.032 10.025 180.8 10.5485 181.451 11.2218L178.099 14.573C177.867 14.3403 177.601 14.1659 177.298 14.0495C177.019 13.9086 176.681 13.8393 176.285 13.8393C175.565 13.8393 174.994 14.0495 174.576 14.4679C174.158 14.8862 173.947 15.4566 173.947 16.177V17.819H178.833V22.3558H173.947V34.7783H168.607V22.3558H164.874Z" fill="white"/>
<path fill-rule="evenodd" clip-rule="evenodd" d="M192.656 17.819V19.2306C192.197 18.7877 191.661 18.423 191.05 18.1322C190.142 17.6893 189.119 17.47 187.978 17.47C186.419 17.47 185.023 17.8526 183.79 18.6199C182.58 19.3895 181.616 20.4364 180.894 21.7608C180.196 23.0874 179.847 24.5997 179.847 26.2976C179.847 27.9977 180.196 29.51 180.894 30.8343C181.616 32.161 182.58 33.2079 183.79 33.9753C185.023 34.7448 186.419 35.1273 187.978 35.1273C189.119 35.1273 190.155 34.9059 191.086 34.4652C191.688 34.1789 192.211 33.8254 192.656 33.4003V34.7783H197.891V17.819H192.656ZM189.061 30.311C190.2 30.311 191.119 29.9396 191.817 29.1946C192.515 28.4273 192.864 27.4608 192.864 26.2976C192.864 25.5079 192.701 24.81 192.376 24.2037C192.075 23.5997 191.632 23.1343 191.05 22.8077C190.491 22.4587 189.84 22.2842 189.095 22.2842C188.352 22.2842 187.688 22.4587 187.106 22.8077C186.549 23.1343 186.095 23.5997 185.746 24.2037C185.419 24.81 185.256 25.5079 185.256 26.2976C185.256 27.0672 185.419 27.7516 185.746 28.3579C186.07 28.9619 186.524 29.4384 187.106 29.7874C187.688 30.1365 188.339 30.311 189.061 30.311Z" fill="white"/>
<path fill-rule="evenodd" clip-rule="evenodd" d="M211.769 29.9619C212.329 29.7069 212.805 29.3579 213.201 28.915L216.587 32.3355C215.703 33.266 214.702 33.9753 213.584 34.4652C212.468 34.9304 211.224 35.1631 209.85 35.1631C208.105 35.1631 206.524 34.7783 205.105 34.011C203.685 33.2437 202.568 32.1857 201.754 30.8343C200.94 29.4855 200.533 27.9732 200.533 26.2976C200.533 24.5997 200.94 23.0874 201.754 21.7608C202.591 20.4118 203.721 19.3536 205.138 18.5863C206.56 17.819 208.153 17.4342 209.92 17.4342C211.247 17.4342 212.457 17.6669 213.551 18.1322C214.668 18.5751 215.655 19.2485 216.517 20.1568L213.096 23.5773C212.7 23.1343 212.235 22.8077 211.701 22.5997C211.189 22.3894 210.596 22.2842 209.92 22.2842C209.152 22.2842 208.466 22.4587 207.861 22.8077C207.279 23.1343 206.815 23.5997 206.466 24.2037C206.139 24.7853 205.979 25.4721 205.979 26.2641C205.979 27.0538 206.139 27.7516 206.466 28.3579C206.815 28.9619 207.291 29.4384 207.898 29.7874C208.501 30.1365 209.177 30.311 209.92 30.311C210.617 30.311 211.235 30.1946 211.769 29.9619Z" fill="white"/>
<path fill-rule="evenodd" clip-rule="evenodd" d="M217.26 17.819V22.3558H221.098V34.7783H226.439V22.3558H230.277V17.819H226.439V10.8035H221.098V17.819H217.26Z" fill="white"/>
<path fill-rule="evenodd" clip-rule="evenodd" d="M245.201 18.5863C246.597 19.3536 247.702 20.4118 248.516 21.7608C249.331 23.0874 249.737 24.5884 249.737 26.2641C249.737 27.9396 249.331 29.4518 248.516 30.8008C247.702 32.1499 246.597 33.2191 245.201 34.011C243.806 34.7783 242.223 35.1631 240.453 35.1631C238.71 35.1631 237.127 34.7783 235.708 34.011C234.313 33.2191 233.207 32.1499 232.394 30.8008C231.58 29.4518 231.172 27.9396 231.172 26.2641C231.172 24.5884 231.58 23.0874 232.394 21.7608C233.207 20.4364 234.313 19.3895 235.708 18.6199C237.105 17.8302 238.686 17.4342 240.453 17.4342C242.223 17.4342 243.806 17.819 245.201 18.5863ZM243.806 28.3915C243.502 28.9977 243.06 29.4742 242.478 29.8232C241.896 30.1499 241.22 30.311 240.453 30.311C239.709 30.311 239.046 30.1499 238.464 29.8232C237.883 29.4742 237.428 28.9977 237.105 28.3915C236.779 27.7651 236.615 27.0672 236.615 26.2976C236.615 25.5079 236.779 24.81 237.105 24.2037C237.428 23.5997 237.883 23.1343 238.464 22.8077C239.046 22.4587 239.709 22.2842 240.453 22.2842C241.22 22.2842 241.885 22.4587 242.442 22.8077C243.023 23.1343 243.478 23.5997 243.806 24.2037C244.129 24.7853 244.293 25.4721 244.293 26.2641C244.293 27.0538 244.129 27.7651 243.806 28.3915Z" fill="white"/>
<path fill-rule="evenodd" clip-rule="evenodd" d="M264.227 17.8526C263.622 17.5976 262.912 17.47 262.097 17.47C260.236 17.47 258.782 18.0159 257.735 19.1098V17.819H252.395V34.7783H257.735V25.461C257.735 24.367 257.99 23.5527 258.502 23.018C259.038 22.4587 259.749 22.1813 260.632 22.1813C261.073 22.1813 261.469 22.2507 261.819 22.3894C262.167 22.5303 262.458 22.7272 262.69 22.9822L265.867 18.9689C265.402 18.4588 264.853 18.0852 264.227 17.8526Z" fill="white"/>
<path d="M266.035 34.2588C266.638 34.8871 267.395 35.2012 268.303 35.2012C269.233 35.2012 269.989 34.8871 270.571 34.2588C271.175 33.6307 271.477 32.8745 271.477 31.9905C271.477 31.0598 271.175 30.292 270.571 29.6871C269.989 29.059 269.233 28.7449 268.303 28.7449C267.395 28.7449 266.638 29.059 266.035 29.6871C265.428 30.292 265.126 31.0598 265.126 31.9905C265.126 32.8745 265.428 33.6307 266.035 34.2588Z" fill="white"/>
<path fill-rule="evenodd" clip-rule="evenodd" d="M286.956 19.2284V17.819H292.191V34.7783H286.956V33.4026C286.51 33.8254 285.988 34.1789 285.385 34.4652C284.455 34.9059 283.419 35.1273 282.281 35.1273C280.721 35.1273 279.326 34.7448 278.093 33.9753C276.883 33.2079 275.915 32.161 275.196 30.8343C274.498 29.51 274.149 27.9977 274.149 26.2976C274.149 24.5997 274.498 23.0874 275.196 21.7608C275.915 20.4364 276.883 19.3895 278.093 18.6199C279.326 17.8526 280.721 17.47 282.281 17.47C283.419 17.47 284.444 17.6893 285.352 18.1322C285.963 18.423 286.497 18.7877 286.956 19.2284ZM286.119 29.1946C285.421 29.9396 284.502 30.311 283.361 30.311C282.64 30.311 281.989 30.1365 281.407 29.7874C280.826 29.4384 280.372 28.9619 280.045 28.3579C279.722 27.7516 279.558 27.0672 279.558 26.2976C279.558 25.5079 279.722 24.81 280.045 24.2037C280.395 23.5997 280.849 23.1343 281.407 22.8077C281.989 22.4587 282.652 22.2842 283.396 22.2842C284.142 22.2842 284.793 22.4587 285.352 22.8077C285.933 23.1343 286.374 23.5997 286.676 24.2037C287.002 24.81 287.166 25.5079 287.166 26.2976C287.166 27.4608 286.817 28.4273 286.119 29.1946Z" fill="white"/>
<path fill-rule="evenodd" clip-rule="evenodd" d="M295.952 17.819V34.7783H301.29V17.819H295.952Z" fill="white"/>
<path fill-rule="evenodd" clip-rule="evenodd" d="M298.638 9.61786C299.475 9.61786 300.161 9.89527 300.696 10.4545C301.232 11.0138 301.5 11.7118 301.5 12.5484C301.5 13.3627 301.232 14.0607 300.696 14.6423C300.161 15.2016 299.475 15.479 298.638 15.479C297.799 15.479 297.102 15.2016 296.545 14.6423C296.01 14.0607 295.741 13.3627 295.741 12.5484C295.741 11.7118 296.01 11.0138 296.545 10.4545C297.102 9.89527 297.799 9.61786 298.638 9.61786Z" fill="white"/>
<path d="M1.64355 22C1.64355 9.84977 11.3198 0 23.256 0C35.1922 0 44.8682 9.84977 44.8682 22C44.8682 34.1503 35.1922 44 23.256 44C11.3198 44 1.64355 34.1503 1.64355 22Z" fill="#007BE5"/>
<path d="M60.565 13.3345C59.2903 12.705 57.8553 12.3549 56.3384 12.3549C51.042 12.3549 46.7483 16.6457 46.7483 21.9348C46.7483 25.6223 48.8318 28.8219 51.8881 30.4198V40.7222C50.7885 41.4039 49.622 41.9886 48.4031 42.4692C46.7817 43.1098 45.0673 43.5641 43.2857 43.8025C42.3165 43.9329 41.3288 44 40.3225 44C39.3199 44 38.3322 43.9329 37.3632 43.8025C35.3803 43.5382 33.4794 43.0056 31.7014 42.2494C23.8296 38.8973 18.3096 31.0937 18.3096 21.9981C18.3096 12.9061 23.8296 5.10285 31.7014 1.75061C34.3478 0.62202 37.2624 0 40.3225 0C43.1775 0 45.9023 0.543816 48.4031 1.53086C53.8671 3.68374 58.2578 7.95598 60.565 13.3345Z" fill="#54AFFF"/>
<path d="M78.0146 22.0375C78.0146 22.8435 77.9738 23.6383 77.8881 24.4219C76.8825 33.9666 69.9067 41.6831 60.8453 43.6122V30.4778C63.8994 28.8771 65.9851 25.6681 65.9851 21.9741C65.9851 18.1942 63.7989 14.9218 60.6257 13.3583C59.3521 12.7277 57.918 12.377 56.4022 12.377C51.11 12.377 46.8196 16.6755 46.8196 21.9741C46.8196 25.6681 48.9014 28.8733 51.9555 30.4742V43.6122C50.7562 43.3548 49.5906 43.0004 48.4733 42.5452C45.1065 41.1945 42.153 39.0042 39.8627 36.2241C36.697 32.3922 34.79 27.4406 34.79 22.0375C34.79 16.6345 36.697 11.6867 39.8627 7.85456C42.153 5.07465 45.1065 2.88435 48.4733 1.53359C50.9274 0.541054 53.6017 0 56.4022 0C67.5493 0 76.7222 8.60455 77.8881 19.6531C77.9738 20.4368 78.0146 21.2315 78.0146 22.0375Z" fill="white"/>
<path d="M132.826 68.791L137.404 57.209H138.866L143.476 68.791H142.063L140.874 65.7389H135.364L134.176 68.791H132.826ZM135.814 64.5501H140.408L138.111 58.6387L135.814 64.5501Z" fill="#B2BEC8"/>
<path d="M155.999 64.8815V72.0476H154.691V54.1761H159.263C161.21 54.1761 162.697 54.6027 163.727 55.4536C164.757 56.3046 165.272 57.5506 165.272 59.187C165.272 60.8233 164.697 62.2149 163.547 63.2815C162.398 64.3482 160.789 64.884 158.719 64.884H155.999V64.8815ZM155.999 55.3106V63.7494H158.693C160.401 63.7494 161.701 63.3664 162.589 62.5955C163.478 61.827 163.923 60.7409 163.923 59.3373C163.923 56.6536 162.29 55.3106 159.024 55.3106H155.999Z" fill="white"/>
<path d="M179.101 72.0476L176.577 66.8137C176.058 65.7325 175.538 65.0076 175.018 64.6391C174.499 64.2706 173.847 64.084 173.064 64.084H170.712V72.0476H169.405V54.1761H174.661C176.335 54.1761 177.648 54.6028 178.606 55.4537C179.561 56.3046 180.038 57.4294 180.038 58.8258C180.038 60.1131 179.645 61.1894 178.862 62.0549C178.079 62.9203 176.982 63.4755 175.574 63.7252V63.7761C176.321 64.0597 177.054 64.9179 177.768 66.3555L180.581 72.0525H179.101V72.0476ZM170.715 55.3106V62.964H173.977C175.421 62.964 176.568 62.6076 177.418 61.8925C178.268 61.1773 178.692 60.1979 178.692 58.9518C178.692 57.8125 178.309 56.9228 177.542 56.2779C176.776 55.6331 175.679 55.3131 174.254 55.3131H170.715V55.3106Z" fill="white"/>
<path d="M184.425 72.0476V54.1761H185.733V72.0476H184.425Z" fill="white"/>
<path d="M219.202 72.0476L217.035 66.4888H208.818L206.651 72.0476H205.212L212.358 54.1761H213.601L220.668 72.0476H219.202ZM213.39 57.0925C213.294 56.8428 213.213 56.5979 213.153 56.3579C213.091 56.1494 213.026 55.9434 212.954 55.7349H212.901C212.751 56.2828 212.607 56.7288 212.466 57.0682L209.283 65.3567H216.587L213.39 57.0925Z" fill="white"/>
<path d="M196.083 63.7786L187.002 77.0028H190.134L197.623 66.0913L201.445 71.2525H204.101L198.923 64.1034L207.499 51.684H204.206L197.462 61.7374L193.322 55.9846H190.347L196.083 63.7786Z" fill="white"/>
<path d="M208.136 50.5567L207.817 51.2549H204.524L204.951 50.5567H208.136Z" fill="white"/>
<path d="M208.986 49.3737L208.667 50.0719H205.375L205.798 49.3737H208.986Z" fill="white"/>
<path d="M206.914 48.084L206.491 48.7822H209.304V48.084H206.914Z" fill="white"/>
<path d="M187.002 77.2719L187.215 77.9167H189.55L189.921 77.2719H187.002Z" fill="white"/>
<path d="M299.905 58.9531H301.174L297.72 67.9167C297.399 68.7627 297.03 69.3892 296.612 69.7962C296.194 70.2138 295.643 70.4227 294.957 70.4227C294.765 70.4227 294.588 70.4066 294.427 70.3745C294.267 70.3424 294.143 70.3156 294.058 70.2942V69.2018C294.197 69.234 294.331 69.2607 294.459 69.2821C294.588 69.3036 294.738 69.3143 294.909 69.3143C295.38 69.3143 295.739 69.1643 295.985 68.8645C296.232 68.5646 296.473 68.1041 296.708 67.483L296.773 67.3224L293.479 58.9531H294.765L297.351 65.7802L299.905 58.9531Z" fill="#B2BEC8"/>
<path d="M285.419 67.2898V58.9527H286.656V60.6073C286.966 60.0504 287.373 59.6167 287.877 59.3061C288.391 58.9849 288.958 58.8242 289.579 58.8242C290.158 58.8242 290.666 58.9474 291.106 59.1937C291.555 59.4293 291.903 59.7666 292.15 60.2057C292.407 60.6448 292.535 61.1588 292.535 61.7478V67.2898H291.298V61.9406C291.298 61.3623 291.122 60.8857 290.768 60.5109C290.425 60.1361 289.949 59.9487 289.339 59.9487C288.535 59.9487 287.887 60.2807 287.395 60.9446C286.902 61.5979 286.656 62.4921 286.656 63.6273V67.2898H285.419Z" fill="#B2BEC8"/>
<path d="M279.183 67.4183C278.359 67.4183 277.684 67.2042 277.159 66.7758C276.634 66.3474 276.372 65.7745 276.372 65.057C276.372 64.3395 276.618 63.7665 277.111 63.3381C277.604 62.8991 278.289 62.626 279.167 62.5189L281.159 62.2619C281.705 62.1762 281.978 61.9192 281.978 61.4908C281.978 61.0303 281.796 60.6501 281.432 60.3503C281.068 60.0504 280.554 59.9005 279.89 59.9005C279.29 59.9005 278.798 60.0451 278.412 60.3342C278.027 60.6127 277.807 61.025 277.754 61.5711H276.485C276.57 60.7358 276.918 60.0718 277.529 59.5792C278.139 59.0759 278.926 58.8242 279.89 58.8242C280.554 58.8242 281.132 58.9474 281.625 59.1937C282.128 59.4293 282.519 59.7559 282.798 60.1736C283.076 60.5912 283.215 61.0678 283.215 61.6033V65.6353C283.215 65.903 283.269 66.0797 283.376 66.1654C283.494 66.2403 283.638 66.2778 283.81 66.2778C283.895 66.2778 283.981 66.2671 284.067 66.2457V67.2898C283.992 67.3005 283.906 67.3166 283.81 67.338C283.724 67.3594 283.628 67.3702 283.52 67.3702C283.092 67.3702 282.739 67.2524 282.46 67.0167C282.193 66.7811 282.053 66.3956 282.043 65.8602C281.818 66.3314 281.443 66.7115 280.918 67.0007C280.393 67.2791 279.815 67.4183 279.183 67.4183ZM279.328 66.3581C280.174 66.3581 280.827 66.1065 281.288 65.6031C281.759 65.0891 281.994 64.393 281.994 63.5148V63.0972L279.328 63.5148C278.203 63.6969 277.641 64.2056 277.641 65.0409C277.641 65.4479 277.796 65.7691 278.107 66.0047C278.428 66.2403 278.835 66.3581 279.328 66.3581Z" fill="#B2BEC8"/>
<path d="M267.348 70.2938V58.9527H268.585V60.2218C268.799 59.8255 269.163 59.4935 269.677 59.2258C270.202 58.9581 270.759 58.8242 271.348 58.8242C272.204 58.8242 272.922 59.017 273.5 59.4025C274.089 59.7773 274.534 60.2914 274.833 60.9446C275.144 61.5872 275.299 62.3101 275.299 63.1132C275.299 63.9164 275.144 64.6447 274.833 65.2979C274.534 65.9405 274.089 66.4545 273.5 66.84C272.911 67.2256 272.188 67.4183 271.331 67.4183C270.807 67.4183 270.287 67.2898 269.773 67.0328C269.259 66.7758 268.863 66.4492 268.585 66.0529V70.2938H267.348ZM271.251 66.3099C272.076 66.3099 272.745 66.0208 273.259 65.4425C273.773 64.8535 274.03 64.0771 274.03 63.1132C274.03 62.1601 273.773 61.3944 273.259 60.8161C272.745 60.2271 272.076 59.9326 271.251 59.9326C270.427 59.9326 269.757 60.2271 269.243 60.8161C268.729 61.3944 268.472 62.1601 268.472 63.1132C268.472 64.0771 268.729 64.8535 269.243 65.4425C269.757 66.0208 270.427 66.3099 271.251 66.3099Z" fill="#B2BEC8"/>
<path d="M253.152 67.2898V58.9527H254.389V60.6073C254.593 60.0718 254.903 59.6435 255.321 59.3222C255.749 58.9902 256.285 58.8242 256.927 58.8242C257.623 58.8242 258.223 58.9795 258.726 59.2901C259.23 59.6006 259.551 60.0397 259.69 60.6073C259.926 60.0825 260.279 59.6542 260.751 59.3222C261.222 58.9902 261.757 58.8242 262.357 58.8242C263.246 58.8242 263.953 59.0812 264.477 59.5953C265.002 60.1093 265.264 60.8161 265.264 61.7157V67.2898H264.028V61.9406C264.028 61.3409 263.862 60.859 263.53 60.4949C263.198 60.12 262.726 59.9326 262.116 59.9326C261.377 59.9326 260.809 60.2378 260.413 60.8483C260.017 61.448 259.819 62.2083 259.819 63.1293V67.2898H258.582V61.9406C258.582 61.3409 258.416 60.859 258.084 60.4949C257.763 60.12 257.302 59.9326 256.702 59.9326C255.953 59.9326 255.38 60.2378 254.984 60.8483C254.587 61.448 254.389 62.2083 254.389 63.1293V67.2898H253.152Z" fill="#B2BEC8"/>
<path d="M247.418 67.4183C246.625 67.4183 245.924 67.2363 245.313 66.8722C244.703 66.4974 244.221 65.9887 243.868 65.3461C243.525 64.6929 243.354 63.9486 243.354 63.1132C243.354 62.2779 243.525 61.539 243.868 60.8964C244.221 60.2539 244.703 59.7506 245.313 59.3865C245.924 59.0116 246.625 58.8242 247.418 58.8242C248.21 58.8242 248.912 59.0063 249.522 59.3704C250.132 59.7345 250.614 60.2432 250.968 60.8964C251.321 61.539 251.498 62.2779 251.498 63.1132C251.498 63.9486 251.321 64.6929 250.968 65.3461C250.614 65.9887 250.132 66.4974 249.522 66.8722C248.912 67.2363 248.21 67.4183 247.418 67.4183ZM247.418 66.3099C247.975 66.3099 248.462 66.1761 248.879 65.9083C249.297 65.6299 249.624 65.2497 249.859 64.7678C250.106 64.2859 250.229 63.7344 250.229 63.1132C250.229 62.4921 250.106 61.9459 249.859 61.4747C249.624 60.9928 249.292 60.618 248.863 60.3503C248.446 60.0718 247.964 59.9326 247.418 59.9326C246.861 59.9326 246.374 60.0718 245.956 60.3503C245.538 60.618 245.212 60.9928 244.976 61.4747C244.751 61.9459 244.639 62.4921 244.639 63.1132C244.639 63.7344 244.751 64.2859 244.976 64.7678C245.212 65.2497 245.538 65.6299 245.956 65.9083C246.374 66.1761 246.861 66.3099 247.418 66.3099Z" fill="#B2BEC8"/>
<path d="M237.473 67.4171C236.755 67.4171 236.059 67.2993 235.385 67.0637C234.721 66.8174 234.126 66.4533 233.602 65.9714C233.077 65.4788 232.659 64.863 232.349 64.1241C232.038 63.3744 231.883 62.4963 231.883 61.4896C231.883 60.4936 232.038 59.6262 232.349 58.8873C232.659 58.1376 233.077 57.5218 233.602 57.0399C234.137 56.5473 234.737 56.1832 235.401 55.9476C236.065 55.7013 236.755 55.5781 237.473 55.5781C238.298 55.5781 239.053 55.7281 239.738 56.0279C240.423 56.3278 240.991 56.7668 241.441 57.3451C241.901 57.9234 242.196 58.6249 242.324 59.4495H240.959C240.841 58.6035 240.461 57.9449 239.818 57.4737C239.176 57.0024 238.394 56.7668 237.473 56.7668C236.659 56.7668 235.931 56.9489 235.288 57.313C234.656 57.6771 234.159 58.2126 233.794 58.9194C233.43 59.6155 233.248 60.4722 233.248 61.4896C233.248 62.507 233.43 63.3691 233.794 64.0759C234.159 64.7827 234.656 65.3181 235.288 65.6822C235.931 66.0464 236.659 66.2284 237.473 66.2284C238.405 66.2284 239.181 65.9982 239.802 65.5377C240.423 65.0772 240.809 64.4239 240.959 63.5779H242.324C242.185 64.3918 241.885 65.0879 241.425 65.6662C240.964 66.2338 240.391 66.6675 239.706 66.9673C239.031 67.2672 238.287 67.4171 237.473 67.4171Z" fill="#B2BEC8"/>
</svg>
