<svg width="1080" height="164" viewBox="0 0 1080 164" fill="none" xmlns="http://www.w3.org/2000/svg">
<path fill-rule="evenodd" clip-rule="evenodd" d="M450.46 40.348C453.274 40.348 455.584 41.2811 457.383 43.1622C459.181 45.0434 460.084 47.3911 460.084 50.2054C460.084 52.9444 459.181 55.2921 457.383 57.2485C455.584 59.1297 453.274 60.0628 450.46 60.0628C447.638 60.0628 445.291 59.1297 443.417 57.2485C441.618 55.2921 440.716 52.9444 440.716 50.2054C440.716 47.3911 441.618 45.0434 443.417 43.1622C445.291 41.2811 447.638 40.348 450.46 40.348Z" fill="white"/>
<path fill-rule="evenodd" clip-rule="evenodd" d="M335.46 67.9337V44.3361H353.421V67.9337H366.334V83.1939H353.421V124.979H335.46V83.1939H322.547V67.9337H335.46Z" fill="white"/>
<path fill-rule="evenodd" clip-rule="evenodd" d="M374.242 124.979V39.761H392.204V72.1852C393.332 71.1768 394.581 70.3115 395.958 69.5741C399.322 67.6929 403.197 66.7598 407.584 66.7598C412.039 66.7598 415.952 67.6929 419.323 69.5741C422.686 71.3725 425.267 73.9158 427.066 77.2042C428.947 80.4097 429.887 84.1721 429.887 88.4763V124.979H411.926V92.4644C411.926 89.4921 410.985 87.1068 409.104 85.3008C407.306 83.4271 404.996 82.4866 402.181 82.4866C400.225 82.4866 398.502 82.9155 397.019 83.7808C395.529 84.5634 394.355 85.7372 393.498 87.3024C392.632 88.7848 392.204 90.5078 392.204 92.4644V124.979H374.242Z" fill="white"/>
<path fill-rule="evenodd" clip-rule="evenodd" d="M441.423 67.9337V124.979H459.377V67.9337H441.423Z" fill="white"/>
<path fill-rule="evenodd" clip-rule="evenodd" d="M504.661 66.7598C507.399 66.7598 509.785 67.1888 511.824 68.0466C513.931 68.8291 515.775 70.0858 517.34 71.8014L506.655 85.3008C505.872 84.443 504.894 83.7808 503.72 83.3067C502.546 82.8402 501.215 82.6069 499.732 82.6069C496.76 82.6069 494.367 83.54 492.569 85.4212C490.845 87.2196 489.988 89.9586 489.988 93.6384V124.979H472.026V67.9337H489.988V72.2755C493.509 68.5959 498.4 66.7598 504.661 66.7598Z" fill="white"/>
<path fill-rule="evenodd" clip-rule="evenodd" d="M559.727 39.761V71.6434C558.425 70.6125 556.973 69.7246 555.378 68.9871C552.247 67.4973 548.726 66.7598 544.813 66.7598C539.417 66.7598 534.602 68.0466 530.38 70.6275C526.227 73.2161 522.946 76.7376 520.516 81.1923C518.168 85.6545 516.994 90.7414 516.994 96.4524C516.994 102.171 518.168 107.258 520.516 111.712C522.946 116.175 526.227 119.696 530.38 122.278C534.602 124.866 539.417 126.153 544.813 126.153C548.726 126.153 552.292 125.37 555.498 123.805C557.183 122.939 558.711 121.939 560.073 120.788V124.979H577.681V39.761H559.727ZM554.678 108.311C556.552 107.138 558.041 105.535 559.14 103.496C560.231 101.464 560.78 99.1164 560.78 96.4524C560.78 93.7962 560.231 91.4861 559.14 89.5297C558.116 87.498 556.634 85.8877 554.678 84.7138C552.797 83.54 550.607 82.9531 548.101 82.9531C545.596 82.9531 543.368 83.54 541.411 84.7138C539.531 85.8877 538.01 87.498 536.836 89.5297C535.738 91.5614 535.189 93.8714 535.189 96.4524C535.189 99.0412 535.738 101.343 536.836 103.383C537.927 105.414 539.455 107.017 541.411 108.191C543.368 109.365 545.558 109.952 547.988 109.952C550.569 109.952 552.797 109.41 554.678 108.311Z" fill="white"/>
<path fill-rule="evenodd" clip-rule="evenodd" d="M585.048 83.1939V67.9337H597.606V62.9974C597.606 58.3848 598.622 54.2387 600.662 50.5591C602.776 46.8042 605.71 43.8696 609.465 41.7551C613.22 39.5654 617.682 38.4668 622.845 38.4668C626.757 38.4668 630.166 39.129 633.055 40.4608C636.035 41.7175 638.616 43.4782 640.806 45.7432L629.534 57.0153C628.751 56.2327 627.856 55.6458 626.84 55.2545C625.899 54.7804 624.763 54.5472 623.431 54.5472C621.008 54.5472 619.09 55.2545 617.682 56.6616C616.275 58.0687 615.568 59.9875 615.568 62.4105V67.9337H632.002V83.1939H615.568V124.979H597.606V83.1939H585.048Z" fill="white"/>
<path fill-rule="evenodd" clip-rule="evenodd" d="M678.497 67.9337V72.6818C676.955 71.1919 675.149 69.9654 673.094 68.9871C670.04 67.4973 666.601 66.7598 662.763 66.7598C657.518 66.7598 652.823 68.0466 648.677 70.6275C644.606 73.2161 641.363 76.7376 638.933 81.1923C636.585 85.6545 635.411 90.7414 635.411 96.4524C635.411 102.171 636.585 107.258 638.933 111.712C641.363 116.175 644.606 119.696 648.677 122.278C652.823 124.866 657.518 126.153 662.763 126.153C666.601 126.153 670.085 125.408 673.215 123.926C675.239 122.962 677 121.773 678.497 120.343V124.979H696.105V67.9337H678.497ZM666.405 109.952C670.235 109.952 673.328 108.703 675.675 106.197C678.023 103.616 679.197 100.365 679.197 96.4524C679.197 93.7962 678.648 91.4488 677.557 89.4094C676.541 87.3776 675.051 85.8125 673.094 84.7138C671.214 83.54 669.024 82.9531 666.518 82.9531C664.02 82.9531 661.785 83.54 659.828 84.7138C657.955 85.8125 656.427 87.3776 655.253 89.4094C654.155 91.4488 653.606 93.7962 653.606 96.4524C653.606 99.0412 654.155 101.343 655.253 103.383C656.344 105.414 657.872 107.017 659.828 108.191C661.785 109.365 663.975 109.952 666.405 109.952Z" fill="white"/>
<path fill-rule="evenodd" clip-rule="evenodd" d="M742.786 108.778C744.67 107.92 746.27 106.746 747.603 105.257L758.991 116.762C756.02 119.892 752.653 122.278 748.89 123.926C745.139 125.49 740.952 126.273 736.331 126.273C730.461 126.273 725.143 124.979 720.371 122.398C715.594 119.817 711.837 116.258 709.1 111.712C706.363 107.175 704.991 102.089 704.991 96.4524C704.991 90.7414 706.363 85.6545 709.1 81.1923C711.915 76.6549 715.717 73.0956 720.483 70.5147C725.266 67.9337 730.623 66.6395 736.565 66.6395C741.03 66.6395 745.1 67.422 748.779 68.9871C752.536 70.477 755.858 72.742 758.757 75.7971L747.251 87.3024C745.919 85.8125 744.353 84.7138 742.558 84.0141C740.835 83.3067 738.839 82.9531 736.565 82.9531C733.984 82.9531 731.676 83.54 729.642 84.7138C727.685 85.8125 726.124 87.3776 724.948 89.4094C723.85 91.3657 723.309 93.6758 723.309 96.3398C723.309 98.996 723.85 101.343 724.948 103.383C726.124 105.414 727.724 107.017 729.764 108.191C731.793 109.365 734.068 109.952 736.565 109.952C738.912 109.952 740.991 109.561 742.786 108.778Z" fill="white"/>
<path fill-rule="evenodd" clip-rule="evenodd" d="M761.254 67.9337V83.1939H774.165V124.979H792.131V83.1939H805.042V67.9337H792.131V44.3361H774.165V67.9337H761.254Z" fill="white"/>
<path fill-rule="evenodd" clip-rule="evenodd" d="M855.24 70.5147C859.933 73.0956 863.651 76.6549 866.388 81.1923C869.131 85.6545 870.497 90.7035 870.497 96.3398C870.497 101.976 869.131 107.062 866.388 111.6C863.651 116.137 859.933 119.734 855.24 122.398C850.546 124.979 845.222 126.273 839.269 126.273C833.404 126.273 828.081 124.979 823.309 122.398C818.615 119.734 814.897 116.137 812.16 111.6C809.423 107.062 808.052 101.976 808.052 96.3398C808.052 90.7035 809.423 85.6545 812.16 81.1923C814.897 76.7376 818.615 73.2161 823.309 70.6275C828.008 67.9713 833.326 66.6395 839.269 66.6395C845.222 66.6395 850.546 67.9337 855.24 70.5147ZM850.546 103.496C849.526 105.535 848.037 107.138 846.081 108.311C844.124 109.41 841.85 109.952 839.269 109.952C836.766 109.952 834.536 109.41 832.579 108.311C830.623 107.138 829.095 105.535 828.008 103.496C826.91 101.389 826.358 99.0412 826.358 96.4524C826.358 93.7962 826.91 91.4488 828.008 89.4094C829.095 87.3776 830.623 85.8125 832.579 84.7138C834.536 83.54 836.766 82.9531 839.269 82.9531C841.85 82.9531 844.085 83.54 845.958 84.7138C847.915 85.8125 849.442 87.3776 850.546 89.4094C851.633 91.3657 852.185 93.6758 852.185 96.3398C852.185 98.996 851.633 101.389 850.546 103.496Z" fill="white"/>
<path fill-rule="evenodd" clip-rule="evenodd" d="M919.234 68.0466C917.2 67.1888 914.814 66.7598 912.071 66.7598C905.811 66.7598 900.922 68.5959 897.399 72.2755V67.9337H879.438V124.979H897.399V93.6384C897.399 89.9586 898.258 87.2196 899.98 85.4212C901.781 83.54 904.172 82.6069 907.143 82.6069C908.626 82.6069 909.958 82.8402 911.135 83.3067C912.305 83.7808 913.286 84.443 914.067 85.3008L924.753 71.8014C923.187 70.0858 921.341 68.8291 919.234 68.0466Z" fill="white"/>
<path d="M925.316 123.231C927.345 125.345 929.893 126.401 932.947 126.401C936.075 126.401 938.617 125.345 940.573 123.231C942.608 121.119 943.622 118.575 943.622 115.601C943.622 112.471 942.608 109.888 940.573 107.854C938.617 105.741 936.075 104.684 932.947 104.684C929.893 104.684 927.345 105.741 925.316 107.854C923.276 109.888 922.261 112.471 922.261 115.601C922.261 118.575 923.276 121.119 925.316 123.231Z" fill="white"/>
<path fill-rule="evenodd" clip-rule="evenodd" d="M995.688 72.6742V67.9337H1013.3V124.979H995.688V120.351C994.188 121.773 992.432 122.962 990.403 123.926C987.276 125.408 983.792 126.153 979.962 126.153C974.717 126.153 970.023 124.866 965.876 122.278C961.806 119.696 958.551 116.175 956.132 111.712C953.785 107.258 952.608 102.171 952.608 96.4524C952.608 90.7414 953.785 85.6545 956.132 81.1923C958.551 76.7376 961.806 73.2161 965.876 70.6275C970.023 68.0466 974.717 66.7598 979.962 66.7598C983.792 66.7598 987.237 67.4973 990.292 68.9871C992.349 69.9654 994.144 71.1919 995.688 72.6742ZM992.873 106.197C990.526 108.703 987.432 109.952 983.597 109.952C981.172 109.952 978.981 109.365 977.025 108.191C975.068 107.017 973.54 105.414 972.442 103.383C971.355 101.343 970.803 99.0412 970.803 96.4524C970.803 93.7962 971.355 91.4488 972.442 89.4094C973.619 87.3776 975.146 85.8125 977.025 84.7138C978.981 83.54 981.211 82.9531 983.714 82.9531C986.222 82.9531 988.413 83.54 990.292 84.7138C992.248 85.8125 993.731 87.3776 994.746 89.4094C995.844 91.4488 996.396 93.7962 996.396 96.4524C996.396 100.365 995.22 103.616 992.873 106.197Z" fill="white"/>
<path fill-rule="evenodd" clip-rule="evenodd" d="M1025.95 67.9337V124.979H1043.9V67.9337H1025.95Z" fill="white"/>
<path fill-rule="evenodd" clip-rule="evenodd" d="M1034.98 40.348C1037.8 40.348 1040.1 41.2811 1041.91 43.1622C1043.71 45.0434 1044.61 47.3911 1044.61 50.2054C1044.61 52.9444 1043.71 55.2921 1041.91 57.2485C1040.1 59.1297 1037.8 60.0628 1034.98 60.0628C1032.16 60.0628 1029.81 59.1297 1027.94 57.2485C1026.14 55.2921 1025.24 52.9444 1025.24 50.2054C1025.24 47.3911 1026.14 45.0434 1027.94 43.1622C1029.81 41.2811 1032.16 40.348 1034.98 40.348Z" fill="white"/>
<path d="M36 82C36 41.131 68.5473 8 108.696 8C148.846 8 181.392 41.131 181.392 82C181.392 122.869 148.846 156 108.696 156C68.5473 156 36 122.869 36 82Z" fill="#007BE5"/>
<path d="M234.204 52.8522C229.916 50.735 225.09 49.5573 219.987 49.5573C202.172 49.5573 187.73 63.9902 187.73 81.7808C187.73 94.184 194.738 104.946 205.018 110.321V144.975C201.319 147.268 197.396 149.234 193.296 150.851C187.842 153.006 182.076 154.534 176.083 155.336C172.823 155.774 169.501 156 166.116 156C162.743 156 159.421 155.774 156.162 155.336C149.492 154.447 143.098 152.655 137.118 150.112C110.64 138.836 92.0723 112.588 92.0723 81.9937C92.0723 51.4115 110.64 25.1641 137.118 13.8884C146.019 10.0922 155.823 8 166.116 8C175.719 8 184.884 9.8292 193.296 13.1493C211.675 20.3907 226.444 34.761 234.204 52.8522Z" fill="#54AFFF"/>
<path d="M292.882 82.1262C292.882 84.8372 292.745 87.5106 292.457 90.1463C289.074 122.251 265.61 148.207 235.131 154.696V110.516C245.404 105.132 252.419 94.3382 252.419 81.9128C252.419 69.1987 245.065 58.1915 234.392 52.9325C230.108 50.8114 225.284 49.6316 220.186 49.6316C202.385 49.6316 187.953 64.0904 187.953 81.9128C187.953 94.3382 194.956 105.119 205.229 110.504V154.696C201.194 153.83 197.274 152.638 193.516 151.107C182.191 146.563 172.257 139.196 164.553 129.845C153.905 116.956 147.49 100.3 147.49 82.1262C147.49 63.9524 153.905 47.3098 164.553 34.4199C172.257 25.0693 182.191 17.7019 193.516 13.1585C201.77 9.81991 210.766 8 220.186 8C257.68 8 288.535 36.9426 292.457 74.1061C292.745 76.7418 292.882 79.4152 292.882 82.1262Z" fill="white"/>
</svg>
